<svg xmlns="http://www.w3.org/2000/svg">
  <symbol id="devices"><path fill="#E5E5E5" d="M0 0h32v32H0z"/>
    <g clip-path="url(#a)"><path fill="#EDEFF6" d="M-32-318h1920V999H-32z"/></g><path fill="#fff" d="M-32-229h320V999H-32z"/><path fill="#FDFDFF" d="M-32-229h320V999H-32z" filter="url(#b)"/><path fill="#FDFDFF" d="M-32-19h320v70H-32z"/><path fill="#7D8097" d="M26 8H6L5 9v10a1 1 0 1 0 1 0v-9h20v9a1 1 0 0 0 1 0V9l-1-1z"/><path fill="#7D8097" d="M31 22h-1V7l-2-2H4L2 7v15H0v2c0 1 1 3 3 3h26c2 0 3-2 3-3v-2h-1zM3 7h26v15H19l-1 1h-4l-1-1H3V7zm28 17l-2 1H3l-2-1v-1h11l2 2h4l2-2h11v1z"/><path fill="#7D8097" d="M17 12h-1l-4 5a1 1 0 0 0 1 1l4-5v-1zm3 3h-1l-2 2a1 1 0 0 0 1 0l2-1v-1z"/>
    <defs>
      <filter id="b" width="328" height="1236" x="-34" y="-233" color-interpolation-filters="sRGB" filterUnits="userSpaceOnUse"><feFlood flood-opacity="0" result="BackgroundImageFix"/><feColorMatrix in="SourceAlpha" values="0 0 0 0 0 0 0 0 0 0 0 0 0 0 0 0 0 0 127 0"/><feOffset dx="2"/><feGaussianBlur stdDeviation="2"/><feColorMatrix values="0 0 0 0 0 0 0 0 0 0 0 0 0 0 0 0 0 0 0.06 0"/><feBlend in2="BackgroundImageFix" result="effect1_dropShadow"/><feBlend in="SourceGraphic" in2="effect1_dropShadow" result="shape"/></filter>
      <clipPath id="a"><path fill="#fff" d="M0 0h1920v1317H0z" transform="translate(-32 -318)"/></clipPath>
    </defs>
  </symbol>
  <symbol id="logo"><path fill="#E5E5E5" d="M0 0h46v46H0z"/>
    <g clip-path="url(#a)"><path fill="#EDEFF6" d="M-24-22h1920v1317H-24z"/></g><path fill="#FDFDFF" d="M-24-22h320v90H-24z"/><path
      fill="#747474"
      d="M33 24a3 3 0 1 1 5 2 3 3 0 0 1-5-2zm3 7a2 2 0 1 1 4 1 2 2 0 0 1-4-1zm0 6a2 2 0 1 1 3 1 2 2 0 0 1-3-1zm-2 4a1 1 0 1 1 2 1 1 1 0 0 1-2-1zm-3 2a1 1 0 1 1 2 1 1 1 0 0 1-2-1zM13 19a3 3 0 1 1-4-5 3 3 0 0 1 4 5zm1-8a2 2 0 1 1-3-3 2 2 0 0 1 3 3zm3-5a2 2 0 1 1-3-3 2 2 0 0 1 3 3zm3-3a1 1 0 1 1-2-2 1 1 0 0 1 2 2zm3-1a1 1 0 1 1-1-1 1 1 0 0 1 1 1z"/><path fill="#759400" d="M29 32a3 3 0 1 1 1 6 3 3 0 0 1-1-6zm-4 6a2 2 0 1 1 1 5 2 2 0 0 1-1-5z"/><path
      fill="#759400"
      d="M20 42a2 2 0 1 1 1 3 2 2 0 0 1-1-3zm-4 1a1 1 0 1 1 1 3 1 1 0 0 1-1-3zm-3-1a1 1 0 1 1 0 2 1 1 0 0 1 0-2zm7-29a3 3 0 1 1 2-5 3 3 0 0 1-2 5zm7-4a2 2 0 1 1 1-4 2 2 0 0 1-1 4zm6-1a2 2 0 1 1 1-3 2 2 0 0 1-1 3zm4 1a1 1 0 1 1 1-3 1 1 0 0 1-1 3zm3 2a1 1 0 1 1 0-2 1 1 0 0 1 0 2z"/><path fill="#747474" d="M20 34a3 3 0 1 1-4 4 3 3 0 0 1 4-4zm-8 1a2 2 0 1 1-2 3 2 2 0 0 1 2-3zm-5-2a2 2 0 1 1-3 3 2 2 0 0 1 3-3zm-4-3a1 1 0 1 1-1 2 1 1 0 0 1 1-2zm-1-3a1 1 0 1 1-2 2 1 1 0 0 1 2-2z"/><path fill="#759400" d="M29 16a3 3 0 1 1 6-3 3 3 0 0 1-6 3zm7 2a2 2 0 1 1 5-2 2 2 0 0 1-5 2z"/><path fill="#759400" d="M41 22a2 2 0 1 1 3-2 2 2 0 0 1-3 2zm2 4a1 1 0 1 1 2-1 1 1 0 0 1-2 1zm0 3a1 1 0 1 1 2 0 1 1 0 0 1-2 0zm-30-1a3 3 0 1 1-6 0 3 3 0 0 1 6 0zm-5-6a2 2 0 1 1-5 0 2 2 0 0 1 5 0z"/><path fill="#759400" d="M5 17a2 2 0 1 1-3 0 2 2 0 0 1 3 0zm0-5a1 1 0 1 1-2 0 1 1 0 0 1 2 0zm2-3a1 1 0 1 1-2 0 1 1 0 0 1 2 0z"/>
    <defs>
      <clipPath id="a"><path fill="#fff" d="M0 0h1920v1317H0z" transform="translate(-24 -22)"/></clipPath>
    </defs>
  </symbol>
  <symbol id="applications"><path fill="#E5E5E5" d="M0 0h32v32H0z"/>
    <g clip-path="url(#a)"><path fill="#EDEFF6" d="M-30-179h1920v1317H-30z"/></g><path fill="#fff" d="M-30-90h320v1228H-30z"/><path fill="#FDFDFF" d="M-30-90h320v1228H-30z" filter="url(#b)"/><path fill="#FDFDFF" d="M-30-19h320v70H-30z"/><path fill="#7D8097" d="M29 3H3C1 3 0 4 0 6h1l2-2h26l2 2v14H6v1h25l-2 2H3l-2-2h3v-1H3V6h26v12h1V6l-1-1H3L2 6v14H1V8H0v13c0 2 1 3 3 3h8v2H9a1 1 0 0 0 0 3h14a1 1 0 0 0 0-3h-2v-2h8c2 0 3-1 3-3V6c0-2-1-3-3-3zM12 24h8v2h-8v-2zm11 3v1H9v-1h14z"/><path
      fill="#7D8097"
      d="M26 16h-9v-2h1l1-2v1h1v-1 1h3v-1 1h1v-1l1 2h1v-3l-1 2v-2l-1-1v1h-1v-1l-1 1h-1v1l-1-1h-2v1h-1V9v8h9v-1zM13 9zm0 1l1 2h-1v-2zM9 8a6 6 0 0 1 1 2H9V8zM7 9h1a8 8 0 0 0 0 1H7V9zm0 1l1 1v1H7v-2zm-1 5l-1-2h1v2zm0-3H5l1-2v2zm1 1h1v2H7v-2zm0 3h1a12 12 0 0 0 0 1l-1-1zm2-5a14 14 0 0 0 1 0v1H9v-1zm0 6a6 6 0 0 1 0-1h1l-1 1zm1-2H9v-2h1v2zm1-6v1a12 12 0 0 0-1-1h1zm0 7l-1 1a8 8 0 0 0 1-1zm1-1h-1v-2h1v2zm-1-3v-1l1-1v2h-1zm2 3v-2h1l-1 2z"/>
    <defs>
      <filter id="b" width="328" height="1236" x="-32" y="-94" color-interpolation-filters="sRGB" filterUnits="userSpaceOnUse"><feFlood flood-opacity="0" result="BackgroundImageFix"/><feColorMatrix in="SourceAlpha" values="0 0 0 0 0 0 0 0 0 0 0 0 0 0 0 0 0 0 127 0"/><feOffset dx="2"/><feGaussianBlur stdDeviation="2"/><feColorMatrix values="0 0 0 0 0 0 0 0 0 0 0 0 0 0 0 0 0 0 0.06 0"/><feBlend in2="BackgroundImageFix" result="effect1_dropShadow"/><feBlend in="SourceGraphic" in2="effect1_dropShadow" result="shape"/></filter>
      <clipPath id="a"><path fill="#fff" d="M0 0h1920v1317H0z" transform="translate(-30 -179)"/></clipPath>
    </defs>
  </symbol>
  <symbol id="project"><path fill="#E5E5E5" d="M0 0h32v32H0z"/>
    <g clip-path="url(#a)"><path fill="#EDEFF6" d="M-30-109h1920v1317H-30z"/></g><path fill="#fff" d="M-30-20h320v1228H-30z"/><path fill="#FDFDFF" d="M-30-20h320v1228H-30z" filter="url(#b)"/><path fill="#FDFDFF" d="M-30-19h320v70H-30z"/>
    <g fill="#FDFDFF"><path d="M30 2l-1-2H3L2 2H0v1h2l1 1v26l2 2h22l2-2V4l1-1h2V2h-2zm-2 28l-1 1H5l-1-1V4h24v26zm1-27H3V1h26v2z"/><path
      d="M10 17a5 5 0 1 0 0-10 5 5 0 0 0 0 10zm4-5h-3V9c1 0 3 1 3 3zm-4-3v2l1 2h3a4 4 0 1 1-4-4zm9 5h6l1-1v-1l-1-1h-6l-1 1v1l1 1zm0-2h6v1h-6v-1zm0 6h7l1-1v-1l-1-1h-7l-1 1v1l1 1zm0-2h7v1h-7v-1zm-3-4h1v1h-1v-1zm0 4h1v1h-1v-1zm3-6h4l2-1V7l-2-1h-4l-1 1v2l1 1zm0-3h4v2h-4V7zm-3 0h1v2h-1V7zm-5 16H9l-2 2v3l2 2h2l1-2v-3l-1-2zm0 5v1H9l-1-1v-3h3v3zm6-3h-2l-2 2v1l2 2h2l2-2v-1l-2-2zm1 3l-1 1h-2l-1-1v-1l1-1h2l1 1v1zm5-5h-2l-1 2v3l1 2h2l2-2v-3l-2-2zm1 5l-1 1h-2v-4h3v3zm-10-6l-3-2-1-1H9l-1 1v1l1 1h2l3 1 1 1h2l1-1 3-1h2l1-1v-1l-1-1h-1l-1 1-3 2-1-1h-2l-1 1zm8-2h1v1h-1v-1zm-7 2h2v1h-2v-1zm-6-1v-1h1v1H9z"/></g><path fill="#F0EEFC" d="M-30-19h320v70H-30z"/>
    <g fill="#5B538E"><path d="M30 2l-1-2H3L2 2H0v1h2l1 1v26l2 2h22l2-2V4l1-1h2V2h-2zm-2 28l-1 1H5l-1-1V4h24v26zm1-27H3V1h26v2z"/><path
      d="M10 17a5 5 0 1 0 0-10 5 5 0 0 0 0 10zm4-5h-3V9c1 0 3 1 3 3zm-4-3v2l1 2h3a4 4 0 1 1-4-4zm9 5h6l1-1v-1l-1-1h-6l-1 1v1l1 1zm0-2h6v1h-6v-1zm0 6h7l1-1v-1l-1-1h-7l-1 1v1l1 1zm0-2h7v1h-7v-1zm-8 7H9l-2 2v3l2 2h2l1-2v-3l-1-2zm0 5v1H9l-1-1v-3h3v3zm6-3h-2l-2 2v1l2 2h2l2-2v-1l-2-2zm1 3l-1 1h-2l-1-1v-1l1-1h2l1 1v1zm5-5h-2l-1 2v3l1 2h2l2-2v-3l-2-2zm1 5l-1 1h-2v-4h3v3zm-10-6l-3-2-1-1H9l-1 1v1l1 1h2l3 1 1 1h2l1-1 3-1h2l1-1v-1l-1-1h-1l-1 1-3 2-1-1h-2l-1 1zm8-2h1v1h-1v-1zm-7 2h2v1h-2v-1zm-6-1v-1h1v1H9z"/></g>
    <defs>
      <filter id="b" width="328" height="1236" x="-32" y="-24" color-interpolation-filters="sRGB" filterUnits="userSpaceOnUse"><feFlood flood-opacity="0" result="BackgroundImageFix"/><feColorMatrix in="SourceAlpha" values="0 0 0 0 0 0 0 0 0 0 0 0 0 0 0 0 0 0 127 0"/><feOffset dx="2"/><feGaussianBlur stdDeviation="2"/><feColorMatrix values="0 0 0 0 0 0 0 0 0 0 0 0 0 0 0 0 0 0 0.06 0"/><feBlend in2="BackgroundImageFix" result="effect1_dropShadow"/><feBlend in="SourceGraphic" in2="effect1_dropShadow" result="shape"/></filter>
      <clipPath id="a"><path fill="#fff" d="M0 0h1920v1317H0z" transform="translate(-30 -109)"/></clipPath>
    </defs>
  </symbol>
  <symbol id="services"><path fill="#E5E5E5" d="M0 0h32v32H0z"/>
    <g clip-path="url(#a)"><path fill="#EDEFF6" d="M-32-250h1920v1317H-32z"/></g><path fill="#fff" d="M-32-161h320v1228H-32z"/><path fill="#FDFDFF" d="M-32-161h320v1228H-32z" filter="url(#b)"/><path fill="#FDFDFF" d="M-32-20h320v70H-32z"/>
    <g fill="#7D8097"><path
      d="M23 6h-1v1h-1l-1-3h1l1 1 1-1A7 7 0 0 0 9 7a7 7 0 0 0 7 8 7 7 0 0 0 7-9zm-4-4l1 1a7 7 0 0 0-1-1zm-1 5V4h1l1 3h-2zm2 1l-1 3-1-1V8h2zm-5-5l1-2 1 2h-2zm-2-1a7 7 0 0 0-1 1l1-1zm1 5h-2l1-3h1v3zm0 3l-1 1-1-3h2v2zm-3-6h1l-1 3h-1l1-3zm-1 4h1l1 3h-1l-1-3zm2 4a7 7 0 0 0 1 1l-1-1zm1 0v-1h1a17 17 0 0 0 1 2l-2-1zm2-10l-1 1h-1l2-2v1zm2 10l-1 2-1-2v-1h2v1zm0-2h-2V8h2v2zm-2-3V4a19 19 0 0 0 2 0v3h-2zm4-4h-1a17 17 0 0 0-1-2l2 2zm0 9l-2 1a9 9 0 0 0 1-2h1v1zm0 1a7 7 0 0 0 1-1l-1 1zm2-2h-1l1-3h1l-1 3z"/><path
      d="M23 6h-1v1h-1l-1-3h1l1 1 1-1A7 7 0 0 0 9 7a7 7 0 0 0 7 8 7 7 0 0 0 7-9zm-4-4l1 1a7 7 0 0 0-1-1zm-1 5V4h1l1 3h-2zm2 1l-1 3-1-1V8h2zm-5-5l1-2 1 2h-2zm-2-1a7 7 0 0 0-1 1l1-1zm1 5h-2l1-3h1v3zm0 3l-1 1-1-3h2v2zm-3-6h1l-1 3h-1l1-3zm-1 4h1l1 3h-1l-1-3zm2 4a7 7 0 0 0 1 1l-1-1zm1 0v-1h1a17 17 0 0 0 1 2l-2-1zm2-10l-1 1h-1l2-2v1zm2 10l-1 2-1-2v-1h2v1zm0-2h-2V8h2v2zm-2-3V4a19 19 0 0 0 2 0v3h-2zm4-4h-1a17 17 0 0 0-1-2l2 2zm0 9l-2 1a9 9 0 0 0 1-2h1v1zm0 1a7 7 0 0 0 1-1l-1 1zm2-2h-1l1-3h1l-1 3z"/><path
      d="M23 6h-1v1h-1l-1-3h1l1 1 1-1A7 7 0 0 0 9 7a7 7 0 0 0 7 8 7 7 0 0 0 7-9zm-4-4l1 1a7 7 0 0 0-1-1zm-1 5V4h1l1 3h-2zm2 1l-1 3-1-1V8h2zm-5-5l1-2 1 2h-2zm-2-1a7 7 0 0 0-1 1l1-1zm1 5h-2l1-3h1v3zm0 3l-1 1-1-3h2v2zm-3-6h1l-1 3h-1l1-3zm-1 4h1l1 3h-1l-1-3zm2 4a7 7 0 0 0 1 1l-1-1zm1 0v-1h1a17 17 0 0 0 1 2l-2-1zm2-10l-1 1h-1l2-2v1zm2 10l-1 2-1-2v-1h2v1zm0-2h-2V8h2v2zm-2-3V4a19 19 0 0 0 2 0v3h-2zm4-4h-1a17 17 0 0 0-1-2l2 2zm0 9l-2 1a9 9 0 0 0 1-2h1v1zm0 1a7 7 0 0 0 1-1l-1 1zm2-2h-1l1-3h1l-1 3z"/></g>
    <g fill="#7D8097"><path
      d="M31 29h-1v-5h-1v5h-3v-8h3v1h1v-2h-4l-1 1v8-8l-1-1h-3l-1 1v8h-8v-1h-1v1H8h1a1 1 0 0 0 0-3H4a1 1 0 0 0 0 3h1-2v-4h8v1h1v-2l-5-3H6l-5 3v1h1v4H1a1 1 0 0 0 0 3h30a1 1 0 0 0 0-3zM8 27h1v1H8v-1zm13-6h3v8h-3v-8zM6 27h1v1H6v-1zm0 2h1-1zm-2-1v-1h1v1H4zm3-4H6h1zm0-3l4 3H8a1 1 0 0 0-3 0H3l4-3zm24 10H1v-1h30v1z"/><path
      d="M31 29h-1v-5h-1v5h-3v-8h3v1h1v-2h-4l-1 1v8-8l-1-1h-3l-1 1v8h-8v-1h-1v1H8h1a1 1 0 0 0 0-3H4a1 1 0 0 0 0 3h1-2v-4h8v1h1v-2l-5-3H6l-5 3v1h1v4H1a1 1 0 0 0 0 3h30a1 1 0 0 0 0-3zM8 27h1v1H8v-1zm13-6h3v8h-3v-8zM6 27h1v1H6v-1zm0 2h1-1zm-2-1v-1h1v1H4zm3-4H6h1zm0-3l4 3H8a1 1 0 0 0-3 0H3l4-3zm24 10H1v-1h30v1z"/><path
      d="M31 29h-1v-5h-1v5h-3v-8h3v1h1v-2h-4l-1 1v8-8l-1-1h-3l-1 1v8h-8v-1h-1v1H8h1a1 1 0 0 0 0-3H4a1 1 0 0 0 0 3h1-2v-4h8v1h1v-2l-5-3H6l-5 3v1h1v4H1a1 1 0 0 0 0 3h30a1 1 0 0 0 0-3zM8 27h1v1H8v-1zm13-6h3v8h-3v-8zM6 27h1v1H6v-1zm0 2h1-1zm-2-1v-1h1v1H4zm3-4H6h1zm0-3l4 3H8a1 1 0 0 0-3 0H3l4-3zm24 10H1v-1h30v1z"/></g>
    <g fill="#7D8097"><path d="M23 23h-1v1h1v-1z"/><path d="M23 23h-1v1h1v-1z"/><path d="M23 23h-1v1h1v-1z"/></g>
    <g fill="#7D8097"><path d="M23 25h-1v1h1v-1z"/><path d="M23 25h-1v1h1v-1z"/><path d="M23 25h-1v1h1v-1z"/></g>
    <g fill="#7D8097"><path d="M23 26h-1v1h1v-1z"/><path d="M23 26h-1v1h1v-1z"/><path d="M23 26h-1v1h1v-1z"/></g>
    <g fill="#7D8097"><path d="M23 28h-1v1h1v-1z"/><path d="M23 28h-1v1h1v-1z"/><path d="M23 28h-1v1h1v-1z"/></g>
    <g fill="#7D8097"><path d="M28 23h-1v1h1v-1z"/><path d="M28 23h-1v1h1v-1z"/><path d="M28 23h-1v1h1v-1z"/></g>
    <g fill="#7D8097"><path d="M28 25h-1v1h1v-1z"/><path d="M28 25h-1v1h1v-1z"/><path d="M28 25h-1v1h1v-1z"/></g>
    <g fill="#7D8097"><path d="M28 26h-1v1h1v-1z"/><path d="M28 26h-1v1h1v-1z"/><path d="M28 26h-1v1h1v-1z"/></g>
    <g fill="#7D8097"><path d="M28 28h-1v1h1v-1z"/><path d="M28 28h-1v1h1v-1z"/><path d="M28 28h-1v1h1v-1z"/></g><path fill="#7D8097" d="M22 23v-1 1zm0 0v-1 1zm0 0v-1 1zm5 0v-1 1zm0 0v-1 1zm0 0v-1 1z"/>
    <g fill="#7D8097"><path d="M6 11l-2-1v1c-2 2-2 4-2 5l1 3 1-1c-1 0-2-3 1-6h1v-1z"/><path d="M6 11l-2-1v1c-2 2-2 4-2 5l1 3 1-1c-1 0-2-3 1-6h1v-1z"/><path d="M6 11l-2-1v1c-2 2-2 4-2 5l1 3 1-1c-1 0-2-3 1-6h1v-1z"/></g>
    <g fill="#7D8097"><path d="M29 18h-1c2-2 1-4 1-5l-2-3-1 1 2 2v4h-1v2h2v-1z"/><path d="M29 18h-1c2-2 1-4 1-5l-2-3-1 1 2 2v4h-1v2h2v-1z"/><path d="M29 18h-1c2-2 1-4 1-5l-2-3-1 1 2 2v4h-1v2h2v-1z"/></g>
    <defs>
      <filter id="b" width="328" height="1236" x="-34" y="-165" color-interpolation-filters="sRGB" filterUnits="userSpaceOnUse"><feFlood flood-opacity="0" result="BackgroundImageFix"/><feColorMatrix in="SourceAlpha" values="0 0 0 0 0 0 0 0 0 0 0 0 0 0 0 0 0 0 127 0"/><feOffset dx="2"/><feGaussianBlur stdDeviation="2"/><feColorMatrix values="0 0 0 0 0 0 0 0 0 0 0 0 0 0 0 0 0 0 0.06 0"/><feBlend in2="BackgroundImageFix" result="effect1_dropShadow"/><feBlend in="SourceGraphic" in2="effect1_dropShadow" result="shape"/></filter>
      <clipPath id="a"><path fill="#fff" d="M0 0h1920v1317H0z" transform="translate(-32 -250)"/></clipPath>
    </defs>
  </symbol>
  <symbol id="devices-relationships"><path fill="#E5E5E5" d="M0 0h32v32H0z"/>
    <g clip-path="url(#a)"><path fill="#EDEFF6" d="M-32-388h1920V929H-32z"/></g><path fill="#fff" d="M-32-299h320V929H-32z"/><path fill="#FDFDFF" d="M-32-299h320V929H-32z" filter="url(#b)"/><path fill="#FDFDFF" d="M-32-19h320v70H-32z"/>
    <g fill="#7D8097" clip-path="url(#c)"><path d="M9 26a1 1 0 1 0-3 0 1 1 0 0 0 3 0zm-2 1v-1 1zM8 6V5H6v1h2zm15 20a1 1 0 1 0 3 0 1 1 0 0 0-3 0zm2 0h-1 1zM24 5v1h1V5h-1z"/><path
      d="M30 3H19l-2 2v8h-2V5l-2-2H2L0 5v22l2 2h4v-1H2l-1-1V5l1-1h11l1 1v8h-1V6H2L1 7v17l1 1h11v-6h1v8l-1 1H8v1h5l2-2v-8h2v8l2 2h11l2-2V17h-1v10l-1 1H19l-1-1v-8h1v6h11V6H19v7h-1V5l1-1h11l1 1v10h1V5l-2-2zM2 7h1v1H2V7zm10 6H9v1h3v4h-1v-1h-1l-2 1v1l2 1h1v-1h1v5H2V9h10v4zm-2 5v1H9l1-1zm2-10H4V7h8v1zm2 10h-1v-4h1v4zm3 0h-2v-4h2v4zm5-11h8v1h-8V7zm-2 0h1v1h-1V7zm0 12h3v-1h-3v-4h1v1h1l2-1v-1l-2-1h-1v1h-1V9h10v15H20v-5zm2-5v-1h1l-1 1zm-3 0v4h-1v-4h1z"/></g>
    <defs>
      <filter id="b" width="328" height="1236" x="-34" y="-303" color-interpolation-filters="sRGB" filterUnits="userSpaceOnUse"><feFlood flood-opacity="0" result="BackgroundImageFix"/><feColorMatrix in="SourceAlpha" values="0 0 0 0 0 0 0 0 0 0 0 0 0 0 0 0 0 0 127 0"/><feOffset dx="2"/><feGaussianBlur stdDeviation="2"/><feColorMatrix values="0 0 0 0 0 0 0 0 0 0 0 0 0 0 0 0 0 0 0.06 0"/><feBlend in2="BackgroundImageFix" result="effect1_dropShadow"/><feBlend in="SourceGraphic" in2="effect1_dropShadow" result="shape"/></filter>
      <clipPath id="a"><path fill="#fff" d="M0 0h1920v1317H0z" transform="translate(-32 -388)"/></clipPath>
      <clipPath id="c"><path fill="#fff" d="M0 0h32v32H0z"/></clipPath>
    </defs>
  </symbol>
</svg>
