<svg width="32" height="32" viewBox="0 0 32 32" fill="none" xmlns="http://www.w3.org/2000/svg">
<rect width="32" height="32" fill="#E5E5E5"/>
<g id="Project detail" clip-path="url(#clip0)">
<rect width="1920" height="1317" transform="translate(-30 -179)" fill="#EDEFF6"/>
</g>
<g id="Navigation">
<rect width="320" height="1228" transform="translate(-30 -90)" fill="white"/>
<g id="bg" filter="url(#filter0_d)">
<rect x="-30" y="-90" width="320" height="1228" fill="#FDFDFF"/>
</g>
<g id="Applications">
<g id="Normal">
<g id="Element/Navigation-item">
<rect id="bg_2" x="-30" y="-19" width="320" height="70" fill="#FDFDFF"/>
</g>
<g id="Applications 2">
<g id="Group">
<g id="Group_2">
<path id="Vector" d="M29.0312 2.875H2.96875C1.33181 2.875 0 4.20681 0 5.84375V6.49219C0 6.75113 0.209875 6.96094 0.46875 6.96094C0.727625 6.96094 0.9375 6.75113 0.9375 6.49219V5.84375C0.9375 4.72369 1.84875 3.8125 2.96875 3.8125H29.0312C30.1513 3.8125 31.0625 4.72369 31.0625 5.84375V20.0625H30.125V19.9948C30.125 19.7359 29.9151 19.5261 29.6562 19.5261C29.3974 19.5261 29.1875 19.7359 29.1875 19.9948V20.0625H6.00781C5.74894 20.0625 5.53906 20.2723 5.53906 20.5312C5.53906 20.7902 5.74894 21 6.00781 21H31.0625V21.1562C31.0625 22.2763 30.1513 23.1875 29.0312 23.1875H2.96875C1.84875 23.1875 0.9375 22.2763 0.9375 21.1562V21H4.00781C4.26669 21 4.47656 20.7902 4.47656 20.5312C4.47656 20.2723 4.26669 20.0625 4.00781 20.0625H2.8125V5.84375C2.8125 5.75756 2.88263 5.6875 2.96875 5.6875H29.0312C29.1174 5.6875 29.1875 5.75756 29.1875 5.84375V17.9896C29.1875 18.2485 29.3974 18.4583 29.6562 18.4583C29.9151 18.4583 30.125 18.2485 30.125 17.9896V5.84375C30.125 5.24069 29.6343 4.75 29.0312 4.75H2.96875C2.36569 4.75 1.875 5.24069 1.875 5.84375V20.0625H0.9375V8.48438C0.9375 8.22544 0.727625 8.01562 0.46875 8.01562C0.209875 8.01562 0 8.22544 0 8.48438V21.1562C0 22.7932 1.33181 24.125 2.96875 24.125H11.1348C11.0373 25.1356 10.8099 25.8434 10.5932 26.3125H8.5625C7.78706 26.3125 7.15625 26.9434 7.15625 27.7188C7.15625 28.4941 7.78706 29.125 8.5625 29.125H23.4375C24.2129 29.125 24.8438 28.4941 24.8438 27.7188C24.8438 26.9434 24.2129 26.3125 23.4375 26.3125H21.4068C21.1901 25.8434 20.9627 25.1356 20.8652 24.125H29.0312C30.6682 24.125 32 22.7932 32 21.1562V5.84375C32 4.20681 30.6682 2.875 29.0312 2.875ZM12.0756 24.125H19.9244C20.0067 25.0549 20.1909 25.7752 20.3922 26.3125H11.6078C11.8091 25.7752 11.9932 25.0549 12.0756 24.125ZM23.4375 27.25C23.696 27.25 23.9062 27.4603 23.9062 27.7188C23.9062 27.9772 23.696 28.1875 23.4375 28.1875H8.5625C8.304 28.1875 8.09375 27.9772 8.09375 27.7188C8.09375 27.4603 8.304 27.25 8.5625 27.25H23.4375Z" fill="#7D8097"/>
</g>
</g>
<g id="Group_3">
<g id="Group_4">
<path id="Vector_2" d="M26.4293 16.2188H17.4896V13.9288C17.585 14.0063 17.7086 14.0458 17.8354 14.0322C18.021 14.012 18.1769 13.8836 18.2324 13.7054L18.6924 12.2252L18.9401 12.7971C19.0161 12.9724 19.1909 13.0832 19.3817 13.0795C19.5726 13.0748 19.7417 12.9547 19.8089 12.776L19.973 12.34L20.4668 13.3906C20.5454 13.558 20.7154 13.6631 20.8997 13.66C21.0845 13.6565 21.25 13.5448 21.3224 13.3748L21.6515 12.6013L21.7843 12.8406C21.8738 13.0018 22.0491 13.0956 22.2331 13.0802C22.4168 13.065 22.5744 12.9434 22.636 12.7696L22.8778 12.0873L23.0689 12.6203C23.1357 12.8065 23.3123 12.9308 23.5102 12.9308C23.5106 12.9308 23.5109 12.9308 23.5113 12.9308C23.7096 12.9303 23.8861 12.8051 23.9522 12.6182L24.0758 12.2684L24.8336 14.4616C24.8991 14.6512 25.0774 14.7773 25.2764 14.7773C25.2835 14.7773 25.2907 14.7771 25.2978 14.7768C25.5053 14.7675 25.6819 14.6226 25.7316 14.421L26.4626 11.4598C26.5246 11.2085 26.3712 10.9544 26.1198 10.8924C25.8684 10.8301 25.6144 10.9838 25.5524 11.2351L25.2016 12.6561L24.5238 10.6943C24.4588 10.506 24.2817 10.3794 24.0824 10.3786C24.0818 10.3786 24.0812 10.3786 24.0807 10.3786C23.8821 10.3786 23.705 10.5038 23.6388 10.6912L23.5068 11.0645L23.3161 10.5329C23.2493 10.3466 23.0727 10.2224 22.8749 10.2224C22.8746 10.2224 22.8742 10.2224 22.8739 10.2224C22.6758 10.2228 22.4992 10.3478 22.433 10.5346L22.0994 11.4764L22.0056 11.3074C21.9187 11.1508 21.7503 11.0581 21.5713 11.0667C21.3924 11.076 21.2346 11.1865 21.1644 11.3513L20.8697 12.044L20.3493 10.9369C20.2692 10.7664 20.0963 10.6613 19.9065 10.6679C19.7182 10.6754 19.5527 10.7948 19.4864 10.9711L19.3397 11.361L19.0501 10.6923C18.9722 10.5125 18.7917 10.4003 18.5947 10.4105C18.399 10.421 18.2304 10.5523 18.1723 10.7395L17.6572 12.3965L17.4894 12.1022V8.67233C17.4896 8.41346 17.2798 8.20364 17.0208 8.20364C16.7619 8.20364 16.5521 8.41346 16.5521 8.67239V16.6875C16.5521 16.9465 16.7619 17.1563 17.0208 17.1563H26.4293C26.6881 17.1563 26.898 16.9465 26.898 16.6875C26.898 16.4286 26.6881 16.2188 26.4293 16.2188Z" fill="#7D8097"/>
</g>
</g>
<g id="Group_5">
<g id="Group_6">
<path id="Vector_3" d="M13.4289 9.30462C13.4146 9.28374 13.3989 9.26437 13.3818 9.24643C12.3951 8.06099 10.9093 7.30493 9.25 7.30493C7.59075 7.30493 6.10506 8.06099 5.11831 9.24631C5.10119 9.26431 5.08538 9.28374 5.07106 9.30468C4.32381 10.2281 3.875 11.4023 3.875 12.6799C3.875 13.9577 4.32394 15.1321 5.07131 16.0555C5.08537 16.0761 5.10094 16.0952 5.11769 16.1129C6.10444 17.2986 7.59037 18.0549 9.25 18.0549C10.9116 18.0549 12.3993 17.2969 13.386 16.1086C13.3983 16.0954 13.4095 16.081 13.4203 16.0661C14.1728 15.1411 14.625 13.9626 14.625 12.6799C14.625 11.4023 14.1761 10.228 13.4289 9.30462ZM12.8851 10.1396C13.3054 10.7391 13.5818 11.4462 13.6626 12.2112H12.8982C12.8585 11.5251 12.7318 10.8652 12.5262 10.2608C12.6514 10.2224 12.7708 10.1818 12.8851 10.1396ZM9.24856 8.44574C9.33163 8.64612 9.44131 8.99843 9.54344 9.60174C9.55219 9.65312 9.56063 9.70543 9.56881 9.75843C9.35706 9.76356 9.14456 9.76362 8.93306 9.75849C9.02919 9.14531 9.14544 8.70343 9.24856 8.44574ZM7.38456 9.46643C7.632 9.08631 7.91419 8.78937 8.21694 8.58268C8.16869 8.75999 8.128 8.94181 8.0925 9.11824C8.05562 9.30149 8.022 9.49624 7.99162 9.70049C7.7525 9.67574 7.52075 9.64443 7.2975 9.60693C7.32594 9.55943 7.35469 9.51231 7.38456 9.46643ZM6.88731 10.4857C7.20362 10.5467 7.53625 10.5956 7.88231 10.6317C7.83744 11.1291 7.809 11.661 7.79875 12.2111H6.54044C6.58038 11.5985 6.69875 11.0142 6.88731 10.4857ZM5.61487 15.2203C5.19462 14.6208 4.91813 13.9137 4.83744 13.1487H5.60175C5.6415 13.8348 5.76825 14.4947 5.97381 15.0991C5.84856 15.1375 5.72919 15.1781 5.61487 15.2203ZM5.60175 12.2111H4.83744C4.91813 11.4461 5.19462 10.739 5.61487 10.1395C5.72912 10.1817 5.8485 10.2223 5.97381 10.2607C5.76825 10.8651 5.6415 11.5251 5.60175 12.2111ZM6.54044 13.1487H7.79875C7.809 13.6988 7.83744 14.2306 7.88231 14.7281C7.53681 14.7642 7.20406 14.813 6.88731 14.8742C6.69875 14.3457 6.58038 13.7614 6.54044 13.1487ZM7.38462 15.8934C7.35475 15.8476 7.32594 15.8004 7.29756 15.7529C7.52106 15.7153 7.75287 15.6839 7.99169 15.6592C8.02206 15.8636 8.05569 16.0584 8.09256 16.2416C8.12806 16.4181 8.16869 16.5998 8.217 16.7772C7.91419 16.5705 7.63206 16.2736 7.38462 15.8934ZM8.81831 10.6929C8.962 10.6974 9.106 10.7004 9.25006 10.7004C9.39406 10.7004 9.538 10.6974 9.68175 10.6929C9.72538 11.1707 9.75319 11.6837 9.76356 12.2112H8.73637C8.74712 11.6494 8.77656 11.1424 8.81831 10.6929ZM9.25138 16.9141C9.16831 16.7137 9.05863 16.3614 8.9565 15.7581C8.94781 15.7067 8.93937 15.6544 8.93119 15.6014C9.143 15.5962 9.35544 15.5962 9.56694 15.6013C9.47081 16.2146 9.35456 16.6564 9.25138 16.9141ZM9.68175 14.6669C9.39463 14.6581 9.106 14.6581 8.81837 14.6669C8.77475 14.1892 8.74694 13.6761 8.73656 13.1486H9.76369C9.75294 13.7105 9.72344 14.2175 9.68175 14.6669ZM11.1154 9.46643C11.1453 9.51231 11.1741 9.55943 11.2025 9.60693C10.9789 9.64449 10.7471 9.67587 10.5084 9.70056C10.4779 9.49624 10.4443 9.30143 10.4075 9.11824C10.372 8.94181 10.3314 8.76006 10.2831 8.58268C10.5859 8.78937 10.868 9.08631 11.1154 9.46643ZM11.1155 15.8935C10.8681 16.2736 10.5859 16.5706 10.2831 16.7772C10.3313 16.5999 10.372 16.4181 10.4075 16.2416C10.4444 16.0584 10.478 15.8636 10.5084 15.6593C10.7475 15.6841 10.9792 15.7154 11.2026 15.7529C11.1741 15.8004 11.1454 15.8476 11.1155 15.8935ZM11.6127 14.8741C11.2964 14.8131 10.9637 14.7642 10.6177 14.7281C10.6626 14.2307 10.691 13.6989 10.7013 13.1487H11.9596C11.9196 13.7613 11.8012 14.3456 11.6127 14.8741ZM10.7013 12.2112C10.691 11.661 10.6626 11.1292 10.6177 10.6317C10.9631 10.5957 11.2959 10.5468 11.6127 10.4857C11.8012 11.0142 11.9197 11.5986 11.9596 12.2112H10.7013ZM12.8851 15.2203C12.7709 15.1781 12.6515 15.1375 12.5262 15.0991C12.7318 14.4947 12.8585 13.8348 12.8982 13.1487H13.6626C13.5819 13.9137 13.3054 14.6208 12.8851 15.2203Z" fill="#7D8097"/>
</g>
</g>
</g>
</g>
</g>
</g>
<defs>
<filter id="filter0_d" x="-32" y="-94" width="328" height="1236" filterUnits="userSpaceOnUse" color-interpolation-filters="sRGB">
<feFlood flood-opacity="0" result="BackgroundImageFix"/>
<feColorMatrix in="SourceAlpha" type="matrix" values="0 0 0 0 0 0 0 0 0 0 0 0 0 0 0 0 0 0 127 0"/>
<feOffset dx="2"/>
<feGaussianBlur stdDeviation="2"/>
<feColorMatrix type="matrix" values="0 0 0 0 0 0 0 0 0 0 0 0 0 0 0 0 0 0 0.06 0"/>
<feBlend mode="normal" in2="BackgroundImageFix" result="effect1_dropShadow"/>
<feBlend mode="normal" in="SourceGraphic" in2="effect1_dropShadow" result="shape"/>
</filter>
<clipPath id="clip0">
<rect width="1920" height="1317" fill="white" transform="translate(-30 -179)"/>
</clipPath>
</defs>
</svg>
