<svg width="32" height="32" viewBox="0 0 32 32" fill="none" xmlns="http://www.w3.org/2000/svg">
<rect width="32" height="32" fill="#E5E5E5"/>
<g id="Project detail" clip-path="url(#clip0)">
<rect width="1920" height="1317" transform="translate(-32 -388)" fill="#EDEFF6"/>
</g>
<g id="Navigation">
<rect width="320" height="1228" transform="translate(-32 -299)" fill="white"/>
<g id="bg" filter="url(#filter0_d)">
<rect x="-32" y="-299" width="320" height="1228" fill="#FDFDFF"/>
</g>
<g id="Devices relationships">
<g id="Normal">
<g id="Element/Navigation-item">
<rect id="bg_2" x="-32" y="-19" width="320" height="70" fill="#FDFDFF"/>
</g>
<g id="devices_relationships" clip-path="url(#clip1)">
<path id="Vector" d="M8.6504 26.2795C8.6504 25.5527 8.05909 24.9614 7.33228 24.9614C6.60571 24.9614 6.0144 25.5527 6.0144 26.2795C6.0144 27.0061 6.60571 27.5974 7.33228 27.5974C8.05909 27.5974 8.6504 27.0061 8.6504 26.2795ZM7.33228 26.6597C7.12256 26.6597 6.95215 26.4892 6.95215 26.2795C6.95215 26.0696 7.12256 25.8992 7.33228 25.8992C7.54224 25.8992 7.71265 26.0696 7.71265 26.2795C7.71265 26.4892 7.542 26.6597 7.33228 26.6597Z" fill="#7D8097"/>
<path id="Vector_2" d="M8.17762 5.61054C8.43666 5.61054 8.64638 5.40058 8.64638 5.14179C8.64638 4.88275 8.43666 4.67303 8.17762 4.67303H6.48694C6.22791 4.67303 6.01794 4.88275 6.01794 5.14179C6.01794 5.40058 6.22791 5.61054 6.48694 5.61054H8.17762Z" fill="#7D8097"/>
<path id="Vector_3" d="M23.225 26.2795C23.225 27.0061 23.8163 27.5974 24.5431 27.5974C25.2697 27.5974 25.861 27.0061 25.861 26.2795C25.861 25.5527 25.2697 24.9614 24.5431 24.9614C23.8163 24.9614 23.225 25.5527 23.225 26.2795ZM24.9232 26.2795C24.9232 26.489 24.7528 26.6597 24.5431 26.6597C24.3331 26.6597 24.1627 26.4892 24.1627 26.2795C24.1627 26.0696 24.3331 25.8992 24.5431 25.8992C24.7528 25.8992 24.9232 26.0698 24.9232 26.2795Z" fill="#7D8097"/>
<path id="Vector_4" d="M23.6975 4.67303C23.4385 4.67303 23.2288 4.88275 23.2288 5.14179C23.2288 5.40058 23.4385 5.61054 23.6975 5.61054H25.3882C25.6472 5.61054 25.8572 5.40058 25.8572 5.14179C25.8572 4.88275 25.6472 4.67303 25.3882 4.67303H23.6975Z" fill="#7D8097"/>
<path id="Vector_5" d="M29.7498 3.18744H19.336C18.1297 3.18744 17.1482 4.16889 17.1482 5.37519V12.9936H14.7268V5.37519C14.7268 4.16889 13.7454 3.18744 12.5388 3.18744H2.12525C0.918947 3.18744 -0.0625 4.16889 -0.0625 5.37519V26.6509C-0.0625 27.7397 0.78882 28.8386 2.12525 28.8386H6.23829C6.49733 28.8386 6.70705 28.6289 6.70705 28.3699C6.70705 28.1111 6.49733 27.9011 6.23829 27.9011H2.12525C1.33423 27.9011 0.875002 27.2273 0.875002 26.6509V5.37519C0.875002 4.68573 1.43604 4.12494 2.12525 4.12494H12.5388C13.2283 4.12494 13.7891 4.68573 13.7891 5.37519V12.9936H13.232C13.232 12.2107 13.232 7.49677 13.232 6.87006C13.232 6.49433 12.9146 6.17695 12.5388 6.17695C12.0801 6.17695 2.56983 6.17695 2.12525 6.17695C1.74976 6.17695 1.43238 6.49433 1.43238 6.87006V24.06C1.43238 24.4355 1.74976 24.7529 2.12525 24.7529H12.5388C12.9146 24.7529 13.232 24.4355 13.232 24.06V19.0324H13.7891V26.6509C13.7891 27.3791 13.1836 27.9011 12.5388 27.9011H8.4258C8.16701 27.9011 7.95705 28.1111 7.95705 28.3699C7.95705 28.6289 8.16701 28.8386 8.4258 28.8386H12.5388C13.6834 28.8386 14.7268 27.9028 14.7268 26.6509V19.0324H17.1482V26.6509C17.1482 27.7397 17.9998 28.8386 19.336 28.8386H29.7498C30.8758 28.8386 31.9376 27.9209 31.9376 26.6509V17.1069C31.9376 16.8479 31.7276 16.6382 31.4688 16.6382C31.2098 16.6382 31.0001 16.8479 31.0001 17.1069V26.6509C31.0001 27.3787 30.3948 27.9011 29.7498 27.9011H19.336C18.5633 27.9011 18.086 27.2488 18.086 26.6509V19.0324H18.6431V24.06C18.6431 24.4355 18.9605 24.7529 19.336 24.7529H29.7498C30.1253 24.7529 30.4427 24.4355 30.4427 24.06C30.4427 23.1257 30.4427 7.84785 30.4427 6.87006C30.4427 6.49433 30.1253 6.17695 29.7498 6.17695C29.2908 6.17695 19.7806 6.17695 19.336 6.17695C18.9605 6.17695 18.6431 6.49433 18.6431 6.87006V12.9936H18.086V5.37519C18.086 4.68573 18.6468 4.12494 19.336 4.12494H29.7498C30.439 4.12494 31.0001 4.68573 31.0001 5.37519V14.9192C31.0001 15.1782 31.2098 15.3879 31.4688 15.3879C31.7276 15.3879 31.9376 15.1782 31.9376 14.9192V5.37519C31.9376 4.16889 30.9561 3.18744 29.7498 3.18744ZM2.36988 7.11445H3.42335V7.925H2.36988V7.11445ZM12.2945 12.9936H8.51271C8.25368 12.9936 8.04396 13.2036 8.04396 13.4626C8.04396 13.7214 8.25368 13.9314 8.51271 13.9314H12.2945V18.0949H11.073V17.3728C11.073 16.8447 10.4788 16.5334 10.0447 16.8342L8.32594 18.0251C7.95021 18.2854 7.95021 18.8418 8.32594 19.1023L10.0447 20.2929C10.4778 20.593 11.073 20.2832 11.073 19.7544V19.0324H12.2945V23.8154H2.36988V8.8625H12.2945V12.9936ZM10.1355 17.9118V19.2153L9.19484 18.5637L10.1355 17.9118ZM12.2945 7.925H4.36085V7.11445H12.2945V7.925ZM13.7891 18.0949H13.232V13.9314H13.7891V18.0949ZM17.1482 18.0949H14.7268V13.9314H17.1482V18.0949ZM21.5718 7.11445H29.5052V7.925H21.5718V7.11445ZM19.5806 7.11445H20.6341V7.925H19.5806V7.11445ZM19.5806 19.0324H23.3794C23.6385 19.0324 23.8482 18.8225 23.8482 18.5637C23.8482 18.3047 23.6385 18.0949 23.3794 18.0949H19.5806V13.9314H20.8191V14.6533C20.8191 15.1811 21.4134 15.4926 21.8475 15.1919L23.5662 14.0012C23.9417 13.7409 23.9419 13.1845 23.5662 12.924L21.8475 11.7331C21.4134 11.4323 20.8191 11.7439 20.8191 12.2717V12.9939H19.5806V8.86274H29.5052V23.8154H19.5806V19.0324ZM21.7569 14.114V12.8107L22.6973 13.4624L21.7569 14.114ZM18.6431 13.9314V18.0949H18.086V13.9314H18.6431Z" fill="#7D8097"/>
</g>
</g>
</g>
</g>
<defs>
<filter id="filter0_d" x="-34" y="-303" width="328" height="1236" filterUnits="userSpaceOnUse" color-interpolation-filters="sRGB">
<feFlood flood-opacity="0" result="BackgroundImageFix"/>
<feColorMatrix in="SourceAlpha" type="matrix" values="0 0 0 0 0 0 0 0 0 0 0 0 0 0 0 0 0 0 127 0"/>
<feOffset dx="2"/>
<feGaussianBlur stdDeviation="2"/>
<feColorMatrix type="matrix" values="0 0 0 0 0 0 0 0 0 0 0 0 0 0 0 0 0 0 0.06 0"/>
<feBlend mode="normal" in2="BackgroundImageFix" result="effect1_dropShadow"/>
<feBlend mode="normal" in="SourceGraphic" in2="effect1_dropShadow" result="shape"/>
</filter>
<clipPath id="clip0">
<rect width="1920" height="1317" fill="white" transform="translate(-32 -388)"/>
</clipPath>
<clipPath id="clip1">
<rect width="32" height="32" fill="white"/>
</clipPath>
</defs>
</svg>
