<svg width="32" height="32" viewBox="0 0 32 32" fill="none" xmlns="http://www.w3.org/2000/svg">
<rect width="32" height="32" fill="#E5E5E5"/>
<g id="Project detail" clip-path="url(#clip0)">
<rect width="1920" height="1317" transform="translate(-32 -318)" fill="#EDEFF6"/>
</g>
<g id="Navigation">
<rect width="320" height="1228" transform="translate(-32 -229)" fill="white"/>
<g id="bg" filter="url(#filter0_d)">
<rect x="-32" y="-229" width="320" height="1228" fill="#FDFDFF"/>
</g>
<g id="Devices">
<g id="Normal">
<g id="Element/Navigation-item">
<rect id="bg_2" x="-32" y="-19" width="320" height="70" fill="#FDFDFF"/>
</g>
<g id="devices">
<g id="Group">
<g id="Group_2">
<path id="Vector" d="M26.4281 8.2757H5.57236C5.19204 8.2757 4.88367 8.58401 4.88367 8.96439V19.3659C4.88367 19.7463 5.19204 20.0546 5.57236 20.0546C5.95267 20.0546 6.26104 19.7463 6.26104 19.3659V9.65301H25.7395V19.3659C25.7395 19.7462 26.0478 20.0545 26.4281 20.0545C26.8085 20.0545 27.1168 19.7462 27.1168 19.3659V8.96432C27.1168 8.58401 26.8084 8.2757 26.4281 8.2757Z" fill="#7D8097"/>
</g>
</g>
<g id="Group_3">
<g id="Group_4">
<path id="Vector_2" d="M31.3803 21.8251H30.1118V7.3623C30.1118 6.21442 29.1779 5.28055 28.0301 5.28055H3.97001C2.82207 5.28055 1.88825 6.21442 1.88825 7.3623V21.8251H0.619814C0.277501 21.8251 0 22.1026 0 22.445V23.6617C0 25.3478 1.37169 26.7195 3.05776 26.7195H28.9422C30.6283 26.7195 32 25.3478 32 23.6617V22.445C32.0001 22.1026 31.7226 21.8251 31.3803 21.8251ZM3.26557 7.3623C3.26557 6.97393 3.58163 6.65786 3.97001 6.65786H28.0299C28.4184 6.65786 28.7344 6.97386 28.7344 7.3623V21.8251H19.4094C19.3654 21.8237 19.3201 21.8275 19.2751 21.8361C18.9834 21.8923 18.7725 22.1476 18.7725 22.4447C18.7725 22.9679 18.3469 23.3935 17.8238 23.3935H14.1763C13.6531 23.3935 13.2276 22.9678 13.2276 22.4447C13.2276 22.0976 12.94 21.8176 12.5934 21.825H3.26557V7.3623ZM30.7604 23.6617C30.7604 24.6643 29.9447 25.4798 28.9423 25.4798H3.05776C2.05525 25.4798 1.23963 24.6643 1.23963 23.6617V23.0648H12.0773C12.3453 23.9705 13.1848 24.6331 14.1762 24.6331H17.8238C18.8152 24.6331 19.6547 23.9704 19.9227 23.0648H30.7605V23.6617H30.7604Z" fill="#7D8097"/>
</g>
</g>
<g id="Group_5">
<g id="Group_6">
<path id="Vector_3" d="M17.0208 12.2787C16.7518 12.0097 16.3159 12.0097 16.0468 12.2787L11.7157 16.6099C11.4468 16.8789 11.4468 17.3149 11.7157 17.5839C11.8502 17.7184 12.0265 17.7856 12.2027 17.7856C12.3789 17.7856 12.5551 17.7182 12.6896 17.5839L17.0208 13.2527C17.2898 12.9837 17.2898 12.5477 17.0208 12.2787Z" fill="#7D8097"/>
</g>
</g>
<g id="Group_7">
<g id="Group_8">
<path id="Vector_4" d="M19.5878 14.7887C19.3188 14.5197 18.8829 14.5197 18.6139 14.7887L16.8885 16.5141C16.6196 16.783 16.6196 17.2191 16.8885 17.4881C17.023 17.6226 17.1993 17.6897 17.3755 17.6897C17.5518 17.6897 17.7279 17.6226 17.8624 17.4881L19.5878 15.7627C19.8568 15.4937 19.8568 15.0577 19.5878 14.7887Z" fill="#7D8097"/>
</g>
</g>
</g>
</g>
</g>
</g>
<defs>
<filter id="filter0_d" x="-34" y="-233" width="328" height="1236" filterUnits="userSpaceOnUse" color-interpolation-filters="sRGB">
<feFlood flood-opacity="0" result="BackgroundImageFix"/>
<feColorMatrix in="SourceAlpha" type="matrix" values="0 0 0 0 0 0 0 0 0 0 0 0 0 0 0 0 0 0 127 0"/>
<feOffset dx="2"/>
<feGaussianBlur stdDeviation="2"/>
<feColorMatrix type="matrix" values="0 0 0 0 0 0 0 0 0 0 0 0 0 0 0 0 0 0 0.06 0"/>
<feBlend mode="normal" in2="BackgroundImageFix" result="effect1_dropShadow"/>
<feBlend mode="normal" in="SourceGraphic" in2="effect1_dropShadow" result="shape"/>
</filter>
<clipPath id="clip0">
<rect width="1920" height="1317" fill="white" transform="translate(-32 -318)"/>
</clipPath>
</defs>
</svg>
