<svg width="46" height="46" viewBox="0 0 46 46" fill="none" xmlns="http://www.w3.org/2000/svg">
<rect width="46" height="46" fill="#E5E5E5"/>
<g id="Project detail" clip-path="url(#clip0)">
<rect width="1920" height="1317" transform="translate(-24 -22)" fill="#EDEFF6"/>
</g>
<g id="Header">
<g id="Logo">
<rect id="bg" x="-24" y="-22" width="320" height="90" fill="#FDFDFF"/>
<g id="LogoWithoutText">
<g id="Layer 1">
<path id="Vector" d="M32.9153 23.5845C33.5854 22.0788 35.3502 21.402 36.8555 22.0722C38.3612 22.743 39.0382 24.5067 38.3686 26.0126C37.6979 27.5183 35.9334 28.196 34.4275 27.5254C32.9215 26.855 32.2449 25.0907 32.9153 23.5845Z" fill="#747474"/>
<path id="Vector_2" d="M35.7648 30.5933C36.288 29.4181 37.6653 28.8895 38.8404 29.4131C40.0157 29.9367 40.5439 31.313 40.0213 32.4882C39.4975 33.6643 38.1207 34.1923 36.9451 33.6692C35.7701 33.1463 35.2416 31.7688 35.7648 30.5933Z" fill="#747474"/>
<path id="Vector_3" d="M35.5112 36.6909C35.9237 35.7642 37.01 35.3469 37.9372 35.7601C38.8649 36.1723 39.2817 37.2587 38.8691 38.1861C38.4563 39.1143 37.3695 39.531 36.4426 39.118C35.5151 38.7054 35.098 37.6186 35.5112 36.6909Z" fill="#747474"/>
<path id="Vector_4" d="M33.802 40.7139C34.0986 40.048 34.8786 39.7489 35.5438 40.0448C36.2098 40.3418 36.5091 41.1216 36.2129 41.7875C35.9164 42.4533 35.1366 42.7521 34.4706 42.4561C33.8054 42.1594 33.5059 41.3796 33.802 40.7139Z" fill="#747474"/>
<path id="Vector_5" d="M31.3726 42.9807C31.5675 42.5425 32.0813 42.3451 32.519 42.54C32.9578 42.7354 33.1554 43.249 32.9599 43.6876C32.7646 44.1259 32.2512 44.323 31.8125 44.128C31.3744 43.9334 31.1773 43.4195 31.3726 42.9807Z" fill="#747474"/>
<path id="Vector_6" d="M13.2775 18.9021C12.0154 19.9615 10.1323 19.7964 9.07327 18.5344C8.01389 17.2711 8.17856 15.3893 9.44065 14.3293C10.7036 13.2698 12.5866 13.434 13.6461 14.6972C14.7057 15.9599 14.5404 17.8423 13.2775 18.9021Z" fill="#747474"/>
<path id="Vector_7" d="M13.7722 11.3495C12.7868 12.1766 11.3171 12.0477 10.4905 11.0621C9.66377 10.0763 9.79227 8.60739 10.7771 7.7804C11.7635 6.95331 13.2326 7.0821 14.0598 8.06765C14.8868 9.05273 14.7578 10.5224 13.7722 11.3495Z" fill="#747474"/>
<path id="Vector_8" d="M16.6912 5.98459C15.914 6.63705 14.7547 6.5356 14.1025 5.75821C13.4494 4.98053 13.5508 3.82149 14.3284 3.16884C15.1062 2.51553 16.2657 2.61735 16.9178 3.39503C17.5707 4.17242 17.4691 5.33184 16.6912 5.98459Z" fill="#747474"/>
<path id="Vector_9" d="M19.9877 3.11474C19.4295 3.58281 18.5974 3.50992 18.129 2.95195C17.6607 2.39342 17.7335 1.56127 18.2915 1.0931C18.8499 0.624281 19.682 0.697455 20.1506 1.25561C20.6185 1.81376 20.5456 2.64592 19.9877 3.11474Z" fill="#747474"/>
<path id="Vector_10" d="M23.1616 2.14301C22.7944 2.45139 22.246 2.40358 21.9382 2.03611C21.6293 1.66846 21.6768 1.12045 22.0448 0.811785C22.4126 0.50312 22.9605 0.551308 23.2692 0.918775C23.5775 1.28634 23.5294 1.83406 23.1616 2.14301Z" fill="#747474"/>
<path id="Vector_11" d="M28.8736 31.7233C30.4726 31.3241 32.0927 32.2978 32.4914 33.8969C32.8897 35.4963 31.9166 37.1157 30.3177 37.5152C28.7181 37.9138 27.0979 36.9406 26.6989 35.3411C26.3002 33.7416 27.2741 32.1221 28.8736 31.7233Z" fill="#759400"/>
<path id="Vector_12" d="M25.1183 38.2894C26.3666 37.9783 27.631 38.7382 27.9421 39.9862C28.2533 41.2348 27.4935 42.4989 26.2456 42.8102C24.9966 43.1211 23.7328 42.3616 23.4214 41.1132C23.1098 39.8651 23.8699 38.601 25.1183 38.2894Z" fill="#759400"/>
<path id="Vector_13" d="M20.1519 41.8343C21.1365 41.5889 22.1339 42.1881 22.3794 43.1729C22.6254 44.158 22.0261 45.1553 21.0411 45.4011C20.0557 45.6469 19.0582 45.0474 18.8129 44.0625C18.5671 43.0776 19.1664 42.0798 20.1519 41.8343Z" fill="#759400"/>
<path id="Vector_14" d="M15.9382 42.9701C16.6448 42.7939 17.361 43.2243 17.5372 43.931C17.7133 44.6383 17.2832 45.3543 16.5762 45.5304C15.869 45.707 15.1531 45.2768 14.9767 44.5694C14.8009 43.863 15.231 43.1467 15.9382 42.9701Z" fill="#759400"/>
<path id="Vector_15" d="M12.6438 42.4528C13.1091 42.3368 13.5809 42.6197 13.6966 43.0851C13.8131 43.5511 13.5298 44.0227 13.0642 44.1386C12.5981 44.2547 12.1269 43.9716 12.0105 43.5057C11.8946 43.0405 12.1777 42.5692 12.6438 42.4528Z" fill="#759400"/>
<path id="Vector_16" d="M20.4665 13.357C18.8541 13.0144 17.825 11.429 18.1676 9.81708C18.5106 8.2048 20.0954 7.17548 21.7074 7.51787C23.3199 7.86082 24.3497 9.44566 24.0068 11.0582C23.6641 12.6706 22.079 13.6993 20.4665 13.357Z" fill="#759400"/>
<path id="Vector_17" d="M26.7439 9.10781C25.4855 8.84038 24.6821 7.6029 24.9497 6.34485C25.2174 5.08652 26.4545 4.28301 27.7124 4.55035C28.9714 4.81815 29.7744 6.05516 29.5069 7.31349C29.2398 8.57201 28.0027 9.37524 26.7439 9.10781Z" fill="#759400"/>
<path id="Vector_18" d="M32.7529 8.09736C31.7602 7.88648 31.1265 6.91052 31.3376 5.91745C31.5482 4.9241 32.5244 4.29062 33.5173 4.5014C34.5106 4.71266 35.1445 5.68844 34.933 6.68151C34.7224 7.67438 33.7464 8.30843 32.7529 8.09736Z" fill="#759400"/>
<path id="Vector_19" d="M37.0529 8.92539C36.3403 8.77406 35.8853 8.07332 36.0368 7.36065C36.1884 6.64797 36.8891 6.19296 37.6016 6.34457C38.3146 6.49599 38.7695 7.19645 38.6181 7.90931C38.4663 8.6218 37.766 9.07681 37.0529 8.92539Z" fill="#759400"/>
<path id="Vector_20" d="M39.7664 10.8293C39.2972 10.7294 38.9975 10.2679 39.0974 9.79873C39.197 9.32916 39.6583 9.0297 40.1277 9.12955C40.5975 9.22931 40.897 9.69043 40.7974 10.1599C40.6976 10.6292 40.2361 10.9287 39.7664 10.8293Z" fill="#759400"/>
<path id="Vector_21" d="M19.9713 33.5498C21.2701 34.5647 21.5002 36.4404 20.4854 37.7394C19.4706 39.0382 17.5948 39.2685 16.2961 38.2543C14.9971 37.2389 14.7666 35.3631 15.7815 34.0638C16.7962 32.7652 18.6721 32.5352 19.9713 33.5498Z" fill="#747474"/>
<path id="Vector_22" d="M12.4905 34.6269C13.5043 35.4189 13.6839 36.8832 12.8921 37.8965C12.0997 38.9104 10.6357 39.0901 9.62232 38.2983C8.60803 37.5057 8.42843 36.0418 9.22057 35.0281C10.0123 34.0141 11.4766 33.8348 12.4905 34.6269Z" fill="#747474"/>
<path id="Vector_23" d="M6.63422 32.8937C7.43407 33.5187 7.57591 34.6737 6.95087 35.4735C6.32593 36.274 5.17093 36.4155 4.37099 35.7909C3.57068 35.1656 3.42874 34.0104 4.05406 33.2106C4.67872 32.4106 5.834 32.2685 6.63422 32.8937Z" fill="#747474"/>
<path id="Vector_24" d="M3.14751 30.27C3.72173 30.7188 3.82346 31.5479 3.37493 32.1221C2.9263 32.696 2.09706 32.7978 1.52293 32.3494C0.948437 31.9007 0.846707 31.0714 1.29533 30.4975C1.74415 29.9234 2.57339 29.8212 3.14751 30.27Z" fill="#747474"/>
<path id="Vector_25" d="M1.52918 27.365C1.90726 27.6603 1.97423 28.2063 1.67891 28.5844C1.38339 28.9628 0.837544 29.0297 0.459462 28.7342C0.0809098 28.4384 0.0139352 27.8927 0.309262 27.5144C0.604777 27.1364 1.15062 27.0695 1.52918 27.365Z" fill="#747474"/>
<path id="Vector_26" d="M29.2793 15.6182C28.5566 14.1372 29.1722 12.3504 30.6535 11.628C32.1349 10.9054 33.9219 11.5204 34.6445 13.0017C35.3671 14.4832 34.7517 16.2707 33.2702 16.9932C31.7889 17.7158 30.0019 17.1002 29.2793 15.6182Z" fill="#759400"/>
<path id="Vector_27" d="M36.4786 17.9372C35.9146 16.7808 36.3949 15.3861 37.5511 14.8223C38.7073 14.2582 40.1021 14.7385 40.666 15.8943C41.2301 17.051 40.7497 18.446 39.5935 19.0097C38.4374 19.5736 37.0427 19.0933 36.4786 17.9372Z" fill="#759400"/>
<path id="Vector_28" d="M40.9758 22.0584C40.5306 21.146 40.9096 20.0457 41.8218 19.6005C42.7345 19.1556 43.8346 19.5342 44.2798 20.4463C44.725 21.3593 44.3461 22.4597 43.4337 22.9045C42.5212 23.3498 41.4208 22.9712 40.9758 22.0584Z" fill="#759400"/>
<path id="Vector_29" d="M42.9622 25.9468C42.6427 25.292 42.9149 24.502 43.5697 24.1827C44.2247 23.8631 45.0145 24.1354 45.3339 24.7902C45.6536 25.445 45.3816 26.235 44.7265 26.5548C44.0715 26.8742 43.2817 26.6018 42.9622 25.9468Z" fill="#759400"/>
<path id="Vector_30" d="M43.1507 29.2625C42.9401 28.8312 43.1194 28.3115 43.5506 28.1009C43.9821 27.8905 44.5018 28.0695 44.7124 28.5008C44.9229 28.9325 44.7437 29.4527 44.3125 29.6629C43.8813 29.8731 43.3613 29.6941 43.1507 29.2625Z" fill="#759400"/>
<path id="Vector_31" d="M13.0553 27.6605C13.0553 29.3085 11.719 30.6449 10.0706 30.6449C8.42236 30.6449 7.08606 29.3085 7.08606 27.6605C7.08606 26.012 8.42236 24.6758 10.0706 24.6758C11.719 24.6758 13.0553 26.012 13.0553 27.6605Z" fill="#759400"/>
<path id="Vector_32" d="M7.59672 22.4176C7.59672 23.7039 6.5535 24.7467 5.26727 24.7467C3.98085 24.7467 2.93762 23.7039 2.93762 22.4176C2.93762 21.1307 3.98085 20.0879 5.26727 20.0879C6.5535 20.0879 7.59672 21.1307 7.59672 22.4176Z" fill="#759400"/>
<path id="Vector_33" d="M5.34836 16.7406C5.34836 17.7558 4.5255 18.5783 3.51036 18.5783C2.49523 18.5783 1.67218 17.7558 1.67218 16.7406C1.67218 15.7249 2.49523 14.9023 3.51036 14.9023C4.5255 14.9023 5.34836 15.7249 5.34836 16.7406Z" fill="#759400"/>
<path id="Vector_34" d="M5.27202 12.3725C5.27202 13.101 4.68128 13.6917 3.95254 13.6917C3.22371 13.6917 2.63306 13.101 2.63306 12.3725C2.63306 11.6436 3.22371 11.0527 3.95254 11.0527C4.68128 11.0527 5.27202 11.6436 5.27202 12.3725Z" fill="#759400"/>
<path id="Vector_35" d="M6.57383 9.31457C6.57383 9.79439 6.18485 10.1834 5.70494 10.1834C5.22504 10.1834 4.83606 9.79439 4.83606 9.31457C4.83606 8.83429 5.22504 8.44531 5.70494 8.44531C6.18485 8.44531 6.57383 8.83429 6.57383 9.31457Z" fill="#759400"/>
</g>
</g>
</g>
</g>
<defs>
<clipPath id="clip0">
<rect width="1920" height="1317" fill="white" transform="translate(-24 -22)"/>
</clipPath>
</defs>
</svg>
