<svg width="32" height="32" viewBox="0 0 32 32" fill="none" xmlns="http://www.w3.org/2000/svg">
<rect width="32" height="32" fill="#E5E5E5"/>
<g id="Project detail" clip-path="url(#clip0)">
<rect width="1920" height="1317" transform="translate(-30 -109)" fill="#EDEFF6"/>
</g>
<g id="Navigation">
<rect width="320" height="1228" transform="translate(-30 -20)" fill="white"/>
<g id="bg" filter="url(#filter0_d)">
<rect x="-30" y="-20" width="320" height="1228" fill="#FDFDFF"/>
</g>
<g id="Projects">
<g id="Normal">
<g id="Element/Navigation-item">
<rect id="bg_2" x="-30" y="-19" width="320" height="70" fill="#FDFDFF"/>
</g>
<g id="project">
<path id="Vector" d="M30.4 1.6C30.399 0.716667 29.6833 0.00104167 28.8 0H3.2C2.31667 0.00104167 1.60104 0.716667 1.6 1.6H0V2.66667H1.6C1.60104 3.55 2.31667 4.26562 3.2 4.26667V30.4C3.20104 31.2833 3.91667 31.999 4.8 32H27.2C28.0833 31.999 28.799 31.2833 28.8 30.4V4.26667C29.6833 4.26562 30.399 3.55 30.4 2.66667H32V1.6H30.4ZM27.7333 30.4C27.7331 30.6945 27.4945 30.9331 27.2 30.9333H4.8C4.50547 30.9331 4.26693 30.6945 4.26667 30.4V4.26667H27.7333V30.4ZM29.3333 2.66667C29.3331 2.9612 29.0945 3.19974 28.8 3.2H3.2C2.90547 3.19974 2.66693 2.9612 2.66667 2.66667V1.6C2.66693 1.30547 2.90547 1.06693 3.2 1.06667H28.8C29.0945 1.06693 29.3331 1.30547 29.3333 1.6V2.66667Z" fill="#FDFDFF"/>
<path id="Vector_2" d="M10.1333 17.0666C12.7843 17.0666 14.9333 14.9176 14.9333 12.2666C14.9333 9.61551 12.7843 7.46655 10.1333 7.46655C7.48221 7.46655 5.33325 9.61551 5.33325 12.2666C5.33612 14.9163 7.48351 17.0637 10.1333 17.0666ZM13.8239 11.7332H11.1999C10.9054 11.733 10.6668 11.4944 10.6666 11.1999V8.57593C12.3015 8.81447 13.5853 10.0983 13.8239 11.7332ZM9.59992 8.57593V11.1999C9.60096 12.0832 10.3166 12.7988 11.1999 12.7999H13.8239C13.5502 14.7035 11.8744 16.0871 9.9533 15.9957C8.03247 15.9041 6.49575 14.3673 6.40409 12.4465C6.31268 10.5254 7.69627 8.84963 9.59992 8.57593Z" fill="#FDFDFF"/>
<path id="Vector_3" d="M19.2 13.8665H24.5333C25.1221 13.8657 25.5992 13.3886 25.6 12.7998V11.7332C25.5992 11.1444 25.1221 10.6673 24.5333 10.6665H19.2C18.6112 10.6673 18.1341 11.1444 18.1333 11.7332V12.7998C18.1341 13.3886 18.6112 13.8657 19.2 13.8665ZM19.2 11.7332H24.5333L24.5343 12.7998H19.2V11.7332Z" fill="#FDFDFF"/>
<path id="Vector_4" d="M19.2 18.1333H25.6C26.1888 18.1326 26.6659 17.6555 26.6666 17.0667V16C26.6659 15.4112 26.1888 14.9341 25.6 14.9333H19.2C18.6112 14.9341 18.1341 15.4112 18.1333 16V17.0667C18.1341 17.6555 18.6112 18.1326 19.2 18.1333ZM19.2 16H25.6L25.601 17.0667H19.2V16Z" fill="#FDFDFF"/>
<path id="Vector_5" d="M16 11.7334H17.0667V12.8001H16V11.7334Z" fill="#FDFDFF"/>
<path id="Vector_6" d="M16 16H17.0667V17.0667H16V16Z" fill="#FDFDFF"/>
<path id="Vector_7" d="M19.2 9.5999H23.4666C24.0554 9.59912 24.5325 9.12204 24.5333 8.53324V7.46657C24.5325 6.87777 24.0554 6.40068 23.4666 6.3999H19.2C18.6112 6.40068 18.1341 6.87777 18.1333 7.46657V8.53324C18.1341 9.12204 18.6112 9.59912 19.2 9.5999ZM19.2 7.46657H23.4666L23.4677 8.53324H19.2V7.46657Z" fill="#FDFDFF"/>
<path id="Vector_8" d="M16 7.46655H17.0667V8.53322H16V7.46655Z" fill="#FDFDFF"/>
<path id="Vector_9" d="M10.6667 23.4666H8.53335C7.65002 23.4676 6.93439 24.1832 6.93335 25.0666V28.2666C6.93439 29.1499 7.65002 29.8655 8.53335 29.8666H10.6667C11.55 29.8655 12.2656 29.1499 12.2667 28.2666V25.0666C12.2656 24.1832 11.55 23.4676 10.6667 23.4666ZM11.2 28.2666C11.1998 28.5611 10.9612 28.7996 10.6667 28.7999H8.53335C8.23882 28.7996 8.00028 28.5611 8.00002 28.2666V25.0666C8.00028 24.772 8.23882 24.5335 8.53335 24.5332H10.6667C10.9612 24.5335 11.1998 24.772 11.2 25.0666V28.2666Z" fill="#FDFDFF"/>
<path id="Vector_10" d="M17.0667 25.0667H14.9334C14.05 25.0677 13.3344 25.7833 13.3334 26.6667V28.2667C13.3344 29.15 14.05 29.8656 14.9334 29.8667H17.0667C17.95 29.8656 18.6657 29.15 18.6667 28.2667V26.6667C18.6657 25.7833 17.95 25.0677 17.0667 25.0667ZM17.6 28.2667C17.5998 28.5612 17.3612 28.7997 17.0667 28.8H14.9334C14.6388 28.7997 14.4003 28.5612 14.4 28.2667V26.6667C14.4003 26.3721 14.6388 26.1336 14.9334 26.1333H17.0667C17.3612 26.1336 17.5998 26.3721 17.6 26.6667V28.2667Z" fill="#FDFDFF"/>
<path id="Vector_11" d="M23.4667 23.4666H21.3334C20.4501 23.4676 19.7344 24.1832 19.7334 25.0666V28.2666C19.7344 29.1499 20.4501 29.8655 21.3334 29.8666H23.4667C24.3501 29.8655 25.0657 29.1499 25.0667 28.2666V25.0666C25.0657 24.1832 24.3501 23.4676 23.4667 23.4666ZM24.0001 28.2666C23.9998 28.5611 23.7613 28.7996 23.4667 28.7999H21.3334C21.0389 28.7996 20.8003 28.5611 20.8001 28.2666V25.0666C20.8003 24.772 21.0389 24.5335 21.3334 24.5332H23.4667C23.7613 24.5335 23.9998 24.772 24.0001 25.0666V28.2666Z" fill="#FDFDFF"/>
<path id="Vector_12" d="M14.4255 21.6398L11.2 20.4302V20.2666C11.1992 19.6778 10.7221 19.2007 10.1333 19.2H9.06667C8.47786 19.2007 8.00078 19.6778 8 20.2666V21.3333C8.00078 21.9221 8.47786 22.3992 9.06667 22.4H10.1333C10.6344 22.3989 11.0674 22.0497 11.1745 21.5601L14.4 22.7697V22.9333C14.4008 23.5221 14.8779 23.9992 15.4667 24H16.5333C17.1221 23.9992 17.5992 23.5221 17.6 22.9333V22.7697L20.8255 21.5601C20.9326 22.0497 21.3656 22.3989 21.8667 22.4H22.9333C23.5221 22.3992 23.9992 21.9221 24 21.3333V20.2666C23.9992 19.6778 23.5221 19.2007 22.9333 19.2H21.8667C21.2779 19.2007 20.8008 19.6778 20.8 20.2666V20.4302L17.5745 21.6398C17.4674 21.1502 17.0344 20.801 16.5333 20.8H15.4667C14.9656 20.801 14.5326 21.1502 14.4255 21.6398ZM21.8667 20.2666H22.9333L22.9344 21.3333H21.8667V20.2666ZM15.4667 21.8666H16.5333L16.5344 22.9333H15.4667V21.8666ZM9.06667 21.3333V20.2666H10.1333L10.1344 21.3333H9.06667Z" fill="#FDFDFF"/>
</g>
</g>
<g id="Active">
<g id="Element/Navigation-item_Active">
<rect id="bg_3" x="-30" y="-19" width="320" height="70" fill="#F0EEFC"/>
</g>
<g id="project_2">
<path id="Vector_13" d="M30.4 1.6C30.399 0.716667 29.6833 0.00104167 28.8 0H3.2C2.31667 0.00104167 1.60104 0.716667 1.6 1.6H0V2.66667H1.6C1.60104 3.55 2.31667 4.26562 3.2 4.26667V30.4C3.20104 31.2833 3.91667 31.999 4.8 32H27.2C28.0833 31.999 28.799 31.2833 28.8 30.4V4.26667C29.6833 4.26562 30.399 3.55 30.4 2.66667H32V1.6H30.4ZM27.7333 30.4C27.7331 30.6945 27.4945 30.9331 27.2 30.9333H4.8C4.50547 30.9331 4.26693 30.6945 4.26667 30.4V4.26667H27.7333V30.4ZM29.3333 2.66667C29.3331 2.9612 29.0945 3.19974 28.8 3.2H3.2C2.90547 3.19974 2.66693 2.9612 2.66667 2.66667V1.6C2.66693 1.30547 2.90547 1.06693 3.2 1.06667H28.8C29.0945 1.06693 29.3331 1.30547 29.3333 1.6V2.66667Z" fill="#5B538E"/>
<path id="Vector_14" d="M10.1333 17.0666C12.7843 17.0666 14.9333 14.9176 14.9333 12.2666C14.9333 9.61551 12.7843 7.46655 10.1333 7.46655C7.48221 7.46655 5.33325 9.61551 5.33325 12.2666C5.33612 14.9163 7.48351 17.0637 10.1333 17.0666ZM13.8239 11.7332H11.1999C10.9054 11.733 10.6668 11.4944 10.6666 11.1999V8.57593C12.3015 8.81447 13.5853 10.0983 13.8239 11.7332ZM9.59992 8.57593V11.1999C9.60096 12.0832 10.3166 12.7988 11.1999 12.7999H13.8239C13.5502 14.7035 11.8744 16.0871 9.9533 15.9957C8.03247 15.9041 6.49575 14.3673 6.40409 12.4465C6.31268 10.5254 7.69627 8.84963 9.59992 8.57593Z" fill="#5B538E"/>
<path id="Vector_15" d="M19.2 13.8665H24.5333C25.1221 13.8657 25.5992 13.3886 25.6 12.7998V11.7332C25.5992 11.1444 25.1221 10.6673 24.5333 10.6665H19.2C18.6112 10.6673 18.1341 11.1444 18.1333 11.7332V12.7998C18.1341 13.3886 18.6112 13.8657 19.2 13.8665ZM19.2 11.7332H24.5333L24.5343 12.7998H19.2V11.7332Z" fill="#5B538E"/>
<path id="Vector_16" d="M19.2 18.1333H25.6C26.1888 18.1326 26.6659 17.6555 26.6666 17.0667V16C26.6659 15.4112 26.1888 14.9341 25.6 14.9333H19.2C18.6112 14.9341 18.1341 15.4112 18.1333 16V17.0667C18.1341 17.6555 18.6112 18.1326 19.2 18.1333ZM19.2 16H25.6L25.601 17.0667H19.2V16Z" fill="#5B538E"/>
<path id="Vector_17" d="M10.6667 23.4666H8.53335C7.65002 23.4676 6.93439 24.1832 6.93335 25.0666V28.2666C6.93439 29.1499 7.65002 29.8655 8.53335 29.8666H10.6667C11.55 29.8655 12.2656 29.1499 12.2667 28.2666V25.0666C12.2656 24.1832 11.55 23.4676 10.6667 23.4666ZM11.2 28.2666C11.1998 28.5611 10.9612 28.7996 10.6667 28.7999H8.53335C8.23882 28.7996 8.00028 28.5611 8.00002 28.2666V25.0666C8.00028 24.772 8.23882 24.5335 8.53335 24.5332H10.6667C10.9612 24.5335 11.1998 24.772 11.2 25.0666V28.2666Z" fill="#5B538E"/>
<path id="Vector_18" d="M17.0667 25.0667H14.9334C14.05 25.0677 13.3344 25.7833 13.3334 26.6667V28.2667C13.3344 29.15 14.05 29.8656 14.9334 29.8667H17.0667C17.95 29.8656 18.6657 29.15 18.6667 28.2667V26.6667C18.6657 25.7833 17.95 25.0677 17.0667 25.0667ZM17.6 28.2667C17.5998 28.5612 17.3612 28.7997 17.0667 28.8H14.9334C14.6388 28.7997 14.4003 28.5612 14.4 28.2667V26.6667C14.4003 26.3721 14.6388 26.1336 14.9334 26.1333H17.0667C17.3612 26.1336 17.5998 26.3721 17.6 26.6667V28.2667Z" fill="#5B538E"/>
<path id="Vector_19" d="M23.4667 23.4666H21.3334C20.4501 23.4676 19.7344 24.1832 19.7334 25.0666V28.2666C19.7344 29.1499 20.4501 29.8655 21.3334 29.8666H23.4667C24.3501 29.8655 25.0657 29.1499 25.0667 28.2666V25.0666C25.0657 24.1832 24.3501 23.4676 23.4667 23.4666ZM24.0001 28.2666C23.9998 28.5611 23.7613 28.7996 23.4667 28.7999H21.3334C21.0389 28.7996 20.8003 28.5611 20.8001 28.2666V25.0666C20.8003 24.772 21.0389 24.5335 21.3334 24.5332H23.4667C23.7613 24.5335 23.9998 24.772 24.0001 25.0666V28.2666Z" fill="#5B538E"/>
<path id="Vector_20" d="M14.4255 21.6398L11.2 20.4302V20.2666C11.1992 19.6778 10.7221 19.2007 10.1333 19.2H9.06667C8.47786 19.2007 8.00078 19.6778 8 20.2666V21.3333C8.00078 21.9221 8.47786 22.3992 9.06667 22.4H10.1333C10.6344 22.3989 11.0674 22.0497 11.1745 21.5601L14.4 22.7697V22.9333C14.4008 23.5221 14.8779 23.9992 15.4667 24H16.5333C17.1221 23.9992 17.5992 23.5221 17.6 22.9333V22.7697L20.8255 21.5601C20.9326 22.0497 21.3656 22.3989 21.8667 22.4H22.9333C23.5221 22.3992 23.9992 21.9221 24 21.3333V20.2666C23.9992 19.6778 23.5221 19.2007 22.9333 19.2H21.8667C21.2779 19.2007 20.8008 19.6778 20.8 20.2666V20.4302L17.5745 21.6398C17.4674 21.1502 17.0344 20.801 16.5333 20.8H15.4667C14.9656 20.801 14.5326 21.1502 14.4255 21.6398ZM21.8667 20.2666H22.9333L22.9344 21.3333H21.8667V20.2666ZM15.4667 21.8666H16.5333L16.5344 22.9333H15.4667V21.8666ZM9.06667 21.3333V20.2666H10.1333L10.1344 21.3333H9.06667Z" fill="#5B538E"/>
</g>
</g>
</g>
</g>
<defs>
<filter id="filter0_d" x="-32" y="-24" width="328" height="1236" filterUnits="userSpaceOnUse" color-interpolation-filters="sRGB">
<feFlood flood-opacity="0" result="BackgroundImageFix"/>
<feColorMatrix in="SourceAlpha" type="matrix" values="0 0 0 0 0 0 0 0 0 0 0 0 0 0 0 0 0 0 127 0"/>
<feOffset dx="2"/>
<feGaussianBlur stdDeviation="2"/>
<feColorMatrix type="matrix" values="0 0 0 0 0 0 0 0 0 0 0 0 0 0 0 0 0 0 0.06 0"/>
<feBlend mode="normal" in2="BackgroundImageFix" result="effect1_dropShadow"/>
<feBlend mode="normal" in="SourceGraphic" in2="effect1_dropShadow" result="shape"/>
</filter>
<clipPath id="clip0">
<rect width="1920" height="1317" fill="white" transform="translate(-30 -109)"/>
</clipPath>
</defs>
</svg>
