<svg width="32" height="32" viewBox="0 0 32 32" fill="none" xmlns="http://www.w3.org/2000/svg">
<rect width="32" height="32" fill="#E5E5E5"/>
<g id="Project detail" clip-path="url(#clip0)">
<rect width="1920" height="1317" transform="translate(-32 -250)" fill="#EDEFF6"/>
</g>
<g id="Navigation">
<rect width="320" height="1228" transform="translate(-32 -161)" fill="white"/>
<g id="bg" filter="url(#filter0_d)">
<rect x="-32" y="-161" width="320" height="1228" fill="#FDFDFF"/>
</g>
<g id="Services">
<g id="Normal">
<g id="Element/Navigation-item">
<rect id="bg_2" x="-32" y="-20" width="320" height="70" fill="#FDFDFF"/>
</g>
<g id="Services_2">
<g id="Group">
<g id="Group_2">
<g id="Vector">
<path d="M23.1798 6.0635C23.1368 5.80831 22.8957 5.63644 22.6397 5.67912C22.3844 5.72213 22.2123 5.96394 22.2554 6.21925C22.2883 6.41463 22.3111 6.61306 22.3256 6.81244H20.8922C20.8472 5.74575 20.6489 4.72262 20.3136 3.80175C20.6018 3.71906 20.8706 3.62919 21.1179 3.53256C21.344 3.84094 21.5433 4.16994 21.7116 4.51687C21.8246 4.74981 22.1049 4.84713 22.3379 4.73413C22.5709 4.62113 22.6681 4.34075 22.5552 4.10781C21.9672 2.89519 21.055 1.86975 19.9174 1.14244C18.7483 0.395062 17.3936 0 16 0C13.7477 0 11.7311 1.02812 10.3944 2.6395C10.3781 2.65662 10.3629 2.67506 10.3492 2.69494C9.33044 3.94781 8.71875 5.54431 8.71875 7.28125C8.71875 9.01813 9.33038 10.6146 10.3492 11.8675C10.3629 11.8874 10.3781 11.9059 10.3945 11.9231C11.7311 13.5344 13.7477 14.5625 16 14.5625C18.2541 14.5625 20.2722 13.5328 21.6089 11.9191C21.6206 11.9065 21.6314 11.8928 21.6418 11.8787C22.6661 10.6242 23.2812 9.02325 23.2812 7.28119C23.2812 6.87269 23.2471 6.463 23.1798 6.0635ZM19.4123 1.93237C19.7934 2.17606 20.1451 2.45844 20.4632 2.77331C20.2984 2.82925 20.1242 2.8825 19.9409 2.93281C19.8146 2.68025 19.6777 2.43756 19.5286 2.20837C19.4475 2.08381 19.3638 1.9645 19.2779 1.84981C19.3228 1.877 19.3679 1.904 19.4123 1.93237ZM17.8357 6.8125C17.8238 5.92231 17.7779 5.06381 17.7011 4.27381C18.2959 4.21775 18.8641 4.13431 19.3976 4.02519C19.7177 4.86831 19.9081 5.817 19.9538 6.8125H17.8357ZM19.9538 7.75C19.9081 8.7455 19.7177 9.69419 19.3976 10.5373C18.8649 10.4284 18.2967 10.3449 17.7011 10.2887C17.7779 9.49869 17.8238 8.64019 17.8357 7.75H19.9538ZM15.4327 2.86219C15.6337 1.728 15.8675 1.20106 16 1.00631C16.1325 1.20113 16.3662 1.728 16.5672 2.86225C16.5978 3.03456 16.6261 3.21469 16.6528 3.40025C16.2185 3.41569 15.7809 3.41562 15.3472 3.40025C15.3738 3.21462 15.4022 3.03456 15.4327 2.86219ZM12.7195 1.85331C12.6346 1.96694 12.5517 2.08506 12.4714 2.20831C12.3222 2.43756 12.1853 2.68025 12.0591 2.93281C11.8769 2.88281 11.7039 2.82994 11.5401 2.77444C11.8949 2.42337 12.2905 2.11356 12.7195 1.85331ZM14.1643 6.8125H12.0462C12.0919 5.817 12.2822 4.86831 12.6024 4.02519C13.1351 4.13419 13.7032 4.21756 14.2989 4.27381C14.2221 5.06381 14.1762 5.92231 14.1643 6.8125ZM14.2989 10.2887C13.7042 10.3448 13.1359 10.4282 12.6024 10.5373C12.2822 9.69419 12.0919 8.7455 12.0462 7.75H14.1643C14.1762 8.64019 14.2221 9.49869 14.2989 10.2887ZM10.8849 3.53369C11.1314 3.62994 11.3993 3.71937 11.6864 3.80181C11.3511 4.72269 11.1529 5.74581 11.1078 6.8125H9.67362C9.76319 5.59181 10.1999 4.46619 10.8849 3.53369ZM9.67362 7.75H11.1078C11.1528 8.81669 11.3511 9.83981 11.6864 10.7607C11.3994 10.8431 11.1314 10.9326 10.8849 11.0288C10.1999 10.0963 9.76319 8.97069 9.67362 7.75ZM11.5402 11.7881C11.7039 11.7325 11.877 11.6796 12.0591 11.6297C12.1854 11.8822 12.3223 12.1249 12.4715 12.3542C12.5518 12.4774 12.6346 12.5956 12.7196 12.7092C12.2906 12.4489 11.8949 12.1392 11.5402 11.7881ZM13.2572 11.8427C13.1676 11.7051 13.0833 11.5616 13.003 11.414C13.4481 11.3306 13.9186 11.2654 14.4085 11.2199C14.4564 11.5631 14.5106 11.8888 14.5714 12.1909C14.664 12.6514 14.7671 13.0416 14.8821 13.3647C14.2814 13.0784 13.7251 12.5615 13.2572 11.8427ZM14.5714 2.37162C14.5106 2.67375 14.4564 2.99931 14.4085 3.34256C13.9179 3.29694 13.4476 3.23181 13.003 3.1485C13.0833 3.00087 13.1676 2.85737 13.2572 2.71981C13.7251 2.001 14.2814 1.48419 14.8821 1.19781C14.7671 1.52088 14.664 1.91112 14.5714 2.37162ZM16.5672 11.7003C16.3662 12.8345 16.1325 13.3614 16 13.5562C15.8675 13.3614 15.6337 12.8346 15.4327 11.7003C15.4022 11.528 15.3739 11.3479 15.3472 11.1623C15.7815 11.1469 16.2191 11.1469 16.6528 11.1623C16.6262 11.3479 16.5978 11.5279 16.5672 11.7003ZM16.7647 10.2279C16.2569 10.2077 15.7439 10.2077 15.2353 10.2279C15.1594 9.45762 15.114 8.61687 15.1019 7.75H16.8981C16.886 8.61687 16.8406 9.45762 16.7647 10.2279ZM15.1019 6.8125C15.114 5.94569 15.1594 5.105 15.2353 4.33481C15.4895 4.34494 15.7448 4.35056 16 4.35056C16.2551 4.35056 16.5104 4.34494 16.7647 4.33481C16.8406 5.105 16.8859 5.94575 16.8981 6.8125H15.1019ZM18.7428 2.71975C18.8324 2.85731 18.9167 3.00081 18.997 3.14844C18.5519 3.23187 18.0814 3.29706 17.5915 3.34256C17.5436 2.99931 17.4894 2.67375 17.4286 2.37162C17.336 1.91112 17.2329 1.52088 17.1179 1.19781C17.7186 1.48413 18.2749 2.00094 18.7428 2.71975ZM18.7428 11.8427C18.2749 12.5615 17.7186 13.0783 17.1179 13.3646C17.2329 13.0416 17.3359 12.6513 17.4286 12.1908C17.4894 11.8888 17.5436 11.5632 17.5915 11.2199C18.0821 11.2655 18.5524 11.3306 18.997 11.414C18.9167 11.5616 18.8324 11.7051 18.7428 11.8427ZM19.2805 12.7091C19.3655 12.5955 19.4483 12.4774 19.5286 12.3541C19.6777 12.1249 19.8147 11.8822 19.9409 11.6297C20.1231 11.6797 20.2961 11.7326 20.4599 11.7881C20.1051 12.1391 19.7095 12.4489 19.2805 12.7091ZM21.1151 11.0288C20.8686 10.9326 20.6007 10.8431 20.3136 10.7607C20.6489 9.83988 20.8471 8.81675 20.8922 7.75H22.3264C22.2368 8.97069 21.8001 10.0963 21.1151 11.0288Z" fill="#7D8097"/>
<path d="M23.1798 6.0635C23.1368 5.80831 22.8957 5.63644 22.6397 5.67912C22.3844 5.72213 22.2123 5.96394 22.2554 6.21925C22.2883 6.41463 22.3111 6.61306 22.3256 6.81244H20.8922C20.8472 5.74575 20.6489 4.72262 20.3136 3.80175C20.6018 3.71906 20.8706 3.62919 21.1179 3.53256C21.344 3.84094 21.5433 4.16994 21.7116 4.51687C21.8246 4.74981 22.1049 4.84713 22.3379 4.73413C22.5709 4.62113 22.6681 4.34075 22.5552 4.10781C21.9672 2.89519 21.055 1.86975 19.9174 1.14244C18.7483 0.395062 17.3936 0 16 0C13.7477 0 11.7311 1.02812 10.3944 2.6395C10.3781 2.65662 10.3629 2.67506 10.3492 2.69494C9.33044 3.94781 8.71875 5.54431 8.71875 7.28125C8.71875 9.01813 9.33038 10.6146 10.3492 11.8675C10.3629 11.8874 10.3781 11.9059 10.3945 11.9231C11.7311 13.5344 13.7477 14.5625 16 14.5625C18.2541 14.5625 20.2722 13.5328 21.6089 11.9191C21.6206 11.9065 21.6314 11.8928 21.6418 11.8787C22.6661 10.6242 23.2812 9.02325 23.2812 7.28119C23.2812 6.87269 23.2471 6.463 23.1798 6.0635ZM19.4123 1.93237C19.7934 2.17606 20.1451 2.45844 20.4632 2.77331C20.2984 2.82925 20.1242 2.8825 19.9409 2.93281C19.8146 2.68025 19.6777 2.43756 19.5286 2.20837C19.4475 2.08381 19.3638 1.9645 19.2779 1.84981C19.3228 1.877 19.3679 1.904 19.4123 1.93237ZM17.8357 6.8125C17.8238 5.92231 17.7779 5.06381 17.7011 4.27381C18.2959 4.21775 18.8641 4.13431 19.3976 4.02519C19.7177 4.86831 19.9081 5.817 19.9538 6.8125H17.8357ZM19.9538 7.75C19.9081 8.7455 19.7177 9.69419 19.3976 10.5373C18.8649 10.4284 18.2967 10.3449 17.7011 10.2887C17.7779 9.49869 17.8238 8.64019 17.8357 7.75H19.9538ZM15.4327 2.86219C15.6337 1.728 15.8675 1.20106 16 1.00631C16.1325 1.20113 16.3662 1.728 16.5672 2.86225C16.5978 3.03456 16.6261 3.21469 16.6528 3.40025C16.2185 3.41569 15.7809 3.41562 15.3472 3.40025C15.3738 3.21462 15.4022 3.03456 15.4327 2.86219ZM12.7195 1.85331C12.6346 1.96694 12.5517 2.08506 12.4714 2.20831C12.3222 2.43756 12.1853 2.68025 12.0591 2.93281C11.8769 2.88281 11.7039 2.82994 11.5401 2.77444C11.8949 2.42337 12.2905 2.11356 12.7195 1.85331ZM14.1643 6.8125H12.0462C12.0919 5.817 12.2822 4.86831 12.6024 4.02519C13.1351 4.13419 13.7032 4.21756 14.2989 4.27381C14.2221 5.06381 14.1762 5.92231 14.1643 6.8125ZM14.2989 10.2887C13.7042 10.3448 13.1359 10.4282 12.6024 10.5373C12.2822 9.69419 12.0919 8.7455 12.0462 7.75H14.1643C14.1762 8.64019 14.2221 9.49869 14.2989 10.2887ZM10.8849 3.53369C11.1314 3.62994 11.3993 3.71937 11.6864 3.80181C11.3511 4.72269 11.1529 5.74581 11.1078 6.8125H9.67362C9.76319 5.59181 10.1999 4.46619 10.8849 3.53369ZM9.67362 7.75H11.1078C11.1528 8.81669 11.3511 9.83981 11.6864 10.7607C11.3994 10.8431 11.1314 10.9326 10.8849 11.0288C10.1999 10.0963 9.76319 8.97069 9.67362 7.75ZM11.5402 11.7881C11.7039 11.7325 11.877 11.6796 12.0591 11.6297C12.1854 11.8822 12.3223 12.1249 12.4715 12.3542C12.5518 12.4774 12.6346 12.5956 12.7196 12.7092C12.2906 12.4489 11.8949 12.1392 11.5402 11.7881ZM13.2572 11.8427C13.1676 11.7051 13.0833 11.5616 13.003 11.414C13.4481 11.3306 13.9186 11.2654 14.4085 11.2199C14.4564 11.5631 14.5106 11.8888 14.5714 12.1909C14.664 12.6514 14.7671 13.0416 14.8821 13.3647C14.2814 13.0784 13.7251 12.5615 13.2572 11.8427ZM14.5714 2.37162C14.5106 2.67375 14.4564 2.99931 14.4085 3.34256C13.9179 3.29694 13.4476 3.23181 13.003 3.1485C13.0833 3.00087 13.1676 2.85737 13.2572 2.71981C13.7251 2.001 14.2814 1.48419 14.8821 1.19781C14.7671 1.52088 14.664 1.91112 14.5714 2.37162ZM16.5672 11.7003C16.3662 12.8345 16.1325 13.3614 16 13.5562C15.8675 13.3614 15.6337 12.8346 15.4327 11.7003C15.4022 11.528 15.3739 11.3479 15.3472 11.1623C15.7815 11.1469 16.2191 11.1469 16.6528 11.1623C16.6262 11.3479 16.5978 11.5279 16.5672 11.7003ZM16.7647 10.2279C16.2569 10.2077 15.7439 10.2077 15.2353 10.2279C15.1594 9.45762 15.114 8.61687 15.1019 7.75H16.8981C16.886 8.61687 16.8406 9.45762 16.7647 10.2279ZM15.1019 6.8125C15.114 5.94569 15.1594 5.105 15.2353 4.33481C15.4895 4.34494 15.7448 4.35056 16 4.35056C16.2551 4.35056 16.5104 4.34494 16.7647 4.33481C16.8406 5.105 16.8859 5.94575 16.8981 6.8125H15.1019ZM18.7428 2.71975C18.8324 2.85731 18.9167 3.00081 18.997 3.14844C18.5519 3.23187 18.0814 3.29706 17.5915 3.34256C17.5436 2.99931 17.4894 2.67375 17.4286 2.37162C17.336 1.91112 17.2329 1.52088 17.1179 1.19781C17.7186 1.48413 18.2749 2.00094 18.7428 2.71975ZM18.7428 11.8427C18.2749 12.5615 17.7186 13.0783 17.1179 13.3646C17.2329 13.0416 17.3359 12.6513 17.4286 12.1908C17.4894 11.8888 17.5436 11.5632 17.5915 11.2199C18.0821 11.2655 18.5524 11.3306 18.997 11.414C18.9167 11.5616 18.8324 11.7051 18.7428 11.8427ZM19.2805 12.7091C19.3655 12.5955 19.4483 12.4774 19.5286 12.3541C19.6777 12.1249 19.8147 11.8822 19.9409 11.6297C20.1231 11.6797 20.2961 11.7326 20.4599 11.7881C20.1051 12.1391 19.7095 12.4489 19.2805 12.7091ZM21.1151 11.0288C20.8686 10.9326 20.6007 10.8431 20.3136 10.7607C20.6489 9.83988 20.8471 8.81675 20.8922 7.75H22.3264C22.2368 8.97069 21.8001 10.0963 21.1151 11.0288Z" fill="#7D8097"/>
<path d="M23.1798 6.0635C23.1368 5.80831 22.8957 5.63644 22.6397 5.67912C22.3844 5.72213 22.2123 5.96394 22.2554 6.21925C22.2883 6.41463 22.3111 6.61306 22.3256 6.81244H20.8922C20.8472 5.74575 20.6489 4.72262 20.3136 3.80175C20.6018 3.71906 20.8706 3.62919 21.1179 3.53256C21.344 3.84094 21.5433 4.16994 21.7116 4.51687C21.8246 4.74981 22.1049 4.84713 22.3379 4.73413C22.5709 4.62113 22.6681 4.34075 22.5552 4.10781C21.9672 2.89519 21.055 1.86975 19.9174 1.14244C18.7483 0.395062 17.3936 0 16 0C13.7477 0 11.7311 1.02812 10.3944 2.6395C10.3781 2.65662 10.3629 2.67506 10.3492 2.69494C9.33044 3.94781 8.71875 5.54431 8.71875 7.28125C8.71875 9.01813 9.33038 10.6146 10.3492 11.8675C10.3629 11.8874 10.3781 11.9059 10.3945 11.9231C11.7311 13.5344 13.7477 14.5625 16 14.5625C18.2541 14.5625 20.2722 13.5328 21.6089 11.9191C21.6206 11.9065 21.6314 11.8928 21.6418 11.8787C22.6661 10.6242 23.2812 9.02325 23.2812 7.28119C23.2812 6.87269 23.2471 6.463 23.1798 6.0635ZM19.4123 1.93237C19.7934 2.17606 20.1451 2.45844 20.4632 2.77331C20.2984 2.82925 20.1242 2.8825 19.9409 2.93281C19.8146 2.68025 19.6777 2.43756 19.5286 2.20837C19.4475 2.08381 19.3638 1.9645 19.2779 1.84981C19.3228 1.877 19.3679 1.904 19.4123 1.93237ZM17.8357 6.8125C17.8238 5.92231 17.7779 5.06381 17.7011 4.27381C18.2959 4.21775 18.8641 4.13431 19.3976 4.02519C19.7177 4.86831 19.9081 5.817 19.9538 6.8125H17.8357ZM19.9538 7.75C19.9081 8.7455 19.7177 9.69419 19.3976 10.5373C18.8649 10.4284 18.2967 10.3449 17.7011 10.2887C17.7779 9.49869 17.8238 8.64019 17.8357 7.75H19.9538ZM15.4327 2.86219C15.6337 1.728 15.8675 1.20106 16 1.00631C16.1325 1.20113 16.3662 1.728 16.5672 2.86225C16.5978 3.03456 16.6261 3.21469 16.6528 3.40025C16.2185 3.41569 15.7809 3.41562 15.3472 3.40025C15.3738 3.21462 15.4022 3.03456 15.4327 2.86219ZM12.7195 1.85331C12.6346 1.96694 12.5517 2.08506 12.4714 2.20831C12.3222 2.43756 12.1853 2.68025 12.0591 2.93281C11.8769 2.88281 11.7039 2.82994 11.5401 2.77444C11.8949 2.42337 12.2905 2.11356 12.7195 1.85331ZM14.1643 6.8125H12.0462C12.0919 5.817 12.2822 4.86831 12.6024 4.02519C13.1351 4.13419 13.7032 4.21756 14.2989 4.27381C14.2221 5.06381 14.1762 5.92231 14.1643 6.8125ZM14.2989 10.2887C13.7042 10.3448 13.1359 10.4282 12.6024 10.5373C12.2822 9.69419 12.0919 8.7455 12.0462 7.75H14.1643C14.1762 8.64019 14.2221 9.49869 14.2989 10.2887ZM10.8849 3.53369C11.1314 3.62994 11.3993 3.71937 11.6864 3.80181C11.3511 4.72269 11.1529 5.74581 11.1078 6.8125H9.67362C9.76319 5.59181 10.1999 4.46619 10.8849 3.53369ZM9.67362 7.75H11.1078C11.1528 8.81669 11.3511 9.83981 11.6864 10.7607C11.3994 10.8431 11.1314 10.9326 10.8849 11.0288C10.1999 10.0963 9.76319 8.97069 9.67362 7.75ZM11.5402 11.7881C11.7039 11.7325 11.877 11.6796 12.0591 11.6297C12.1854 11.8822 12.3223 12.1249 12.4715 12.3542C12.5518 12.4774 12.6346 12.5956 12.7196 12.7092C12.2906 12.4489 11.8949 12.1392 11.5402 11.7881ZM13.2572 11.8427C13.1676 11.7051 13.0833 11.5616 13.003 11.414C13.4481 11.3306 13.9186 11.2654 14.4085 11.2199C14.4564 11.5631 14.5106 11.8888 14.5714 12.1909C14.664 12.6514 14.7671 13.0416 14.8821 13.3647C14.2814 13.0784 13.7251 12.5615 13.2572 11.8427ZM14.5714 2.37162C14.5106 2.67375 14.4564 2.99931 14.4085 3.34256C13.9179 3.29694 13.4476 3.23181 13.003 3.1485C13.0833 3.00087 13.1676 2.85737 13.2572 2.71981C13.7251 2.001 14.2814 1.48419 14.8821 1.19781C14.7671 1.52088 14.664 1.91112 14.5714 2.37162ZM16.5672 11.7003C16.3662 12.8345 16.1325 13.3614 16 13.5562C15.8675 13.3614 15.6337 12.8346 15.4327 11.7003C15.4022 11.528 15.3739 11.3479 15.3472 11.1623C15.7815 11.1469 16.2191 11.1469 16.6528 11.1623C16.6262 11.3479 16.5978 11.5279 16.5672 11.7003ZM16.7647 10.2279C16.2569 10.2077 15.7439 10.2077 15.2353 10.2279C15.1594 9.45762 15.114 8.61687 15.1019 7.75H16.8981C16.886 8.61687 16.8406 9.45762 16.7647 10.2279ZM15.1019 6.8125C15.114 5.94569 15.1594 5.105 15.2353 4.33481C15.4895 4.34494 15.7448 4.35056 16 4.35056C16.2551 4.35056 16.5104 4.34494 16.7647 4.33481C16.8406 5.105 16.8859 5.94575 16.8981 6.8125H15.1019ZM18.7428 2.71975C18.8324 2.85731 18.9167 3.00081 18.997 3.14844C18.5519 3.23187 18.0814 3.29706 17.5915 3.34256C17.5436 2.99931 17.4894 2.67375 17.4286 2.37162C17.336 1.91112 17.2329 1.52088 17.1179 1.19781C17.7186 1.48413 18.2749 2.00094 18.7428 2.71975ZM18.7428 11.8427C18.2749 12.5615 17.7186 13.0783 17.1179 13.3646C17.2329 13.0416 17.3359 12.6513 17.4286 12.1908C17.4894 11.8888 17.5436 11.5632 17.5915 11.2199C18.0821 11.2655 18.5524 11.3306 18.997 11.414C18.9167 11.5616 18.8324 11.7051 18.7428 11.8427ZM19.2805 12.7091C19.3655 12.5955 19.4483 12.4774 19.5286 12.3541C19.6777 12.1249 19.8147 11.8822 19.9409 11.6297C20.1231 11.6797 20.2961 11.7326 20.4599 11.7881C20.1051 12.1391 19.7095 12.4489 19.2805 12.7091ZM21.1151 11.0288C20.8686 10.9326 20.6007 10.8431 20.3136 10.7607C20.6489 9.83988 20.8471 8.81675 20.8922 7.75H22.3264C22.2368 8.97069 21.8001 10.0963 21.1151 11.0288Z" fill="#7D8097"/>
</g>
</g>
</g>
<g id="Group_3">
<g id="Group_4">
<g id="Vector_2">
<path d="M30.5938 29.1875H30.0625V24C30.0625 23.7411 29.8527 23.5312 29.5938 23.5312C29.3348 23.5312 29.125 23.7411 29.125 24V29.1875H26.3125V21.375H29.125V22C29.125 22.2589 29.3348 22.4688 29.5938 22.4688C29.8527 22.4688 30.0625 22.2589 30.0625 22V20.9062C30.0625 20.6474 29.8527 20.4375 29.5938 20.4375H25.8438C25.5848 20.4375 25.375 20.6474 25.375 20.9062V29.1875H24.875V20.9062C24.875 20.6474 24.6652 20.4375 24.4062 20.4375H20.6562C20.3973 20.4375 20.1875 20.6474 20.1875 20.9062V29.1875H11.5938V27.9688C11.5938 27.7099 11.3839 27.5 11.125 27.5C10.8661 27.5 10.6562 27.7099 10.6562 27.9688V29.1875H8.03125V28.625H9C9.77544 28.625 10.4062 27.9942 10.4062 27.2188C10.4062 26.4433 9.77544 25.8125 9 25.8125H4.25C3.47456 25.8125 2.84375 26.4433 2.84375 27.2188C2.84375 27.9942 3.47456 28.625 4.25 28.625H5.21875V29.1875H2.59375V25.125H10.6562V25.9896C10.6562 26.2484 10.8661 26.4583 11.125 26.4583C11.3839 26.4583 11.5938 26.2484 11.5938 25.9896V25.125H11.8059C12.0726 25.125 12.3034 24.9562 12.3805 24.7049C12.4562 24.4579 12.362 24.1937 12.1461 24.0476L6.96513 20.5414C6.76175 20.4037 6.48844 20.4037 6.28487 20.5414L1.104 24.0476C0.888062 24.1937 0.793875 24.4578 0.869563 24.7048C0.946563 24.9561 1.1775 25.1249 1.44419 25.1249H1.65625V29.1874H1.40625C0.630813 29.1875 0 29.8183 0 30.5938C0 31.3692 0.630813 32 1.40625 32H30.5938C31.3691 32 32 31.3692 32 30.5938C32 29.8183 31.3691 29.1875 30.5938 29.1875ZM8.03125 26.75H9C9.2585 26.75 9.46875 26.9602 9.46875 27.2188C9.46875 27.4773 9.2585 27.6875 9 27.6875H8.03125V26.75ZM21.125 21.375H23.9375V29.1875H21.125V21.375ZM6.15625 26.75H7.09375V27.6875H6.15625V26.75ZM6.15625 28.625H7.09375V29.1875H6.15625V28.625ZM4.25 27.6875C3.9915 27.6875 3.78125 27.4773 3.78125 27.2188C3.78125 26.9602 3.9915 26.75 4.25 26.75H5.21875V27.6875H4.25ZM7.09375 24.1875H6.15625V23.5938C6.15625 23.3352 6.3665 23.125 6.625 23.125C6.8835 23.125 7.09375 23.3352 7.09375 23.5938V24.1875ZM6.625 21.4433L10.6799 24.1875H8.03125V23.5938C8.03125 22.8183 7.40044 22.1875 6.625 22.1875C5.84956 22.1875 5.21875 22.8183 5.21875 23.5938V24.1875H2.57L6.625 21.4433ZM30.5938 31.0625H1.40625C1.14775 31.0625 0.9375 30.8523 0.9375 30.5938C0.9375 30.3352 1.14775 30.125 1.40625 30.125H30.5938C30.8522 30.125 31.0625 30.3352 31.0625 30.5938C31.0625 30.8523 30.8522 31.0625 30.5938 31.0625Z" fill="#7D8097"/>
<path d="M30.5938 29.1875H30.0625V24C30.0625 23.7411 29.8527 23.5312 29.5938 23.5312C29.3348 23.5312 29.125 23.7411 29.125 24V29.1875H26.3125V21.375H29.125V22C29.125 22.2589 29.3348 22.4688 29.5938 22.4688C29.8527 22.4688 30.0625 22.2589 30.0625 22V20.9062C30.0625 20.6474 29.8527 20.4375 29.5938 20.4375H25.8438C25.5848 20.4375 25.375 20.6474 25.375 20.9062V29.1875H24.875V20.9062C24.875 20.6474 24.6652 20.4375 24.4062 20.4375H20.6562C20.3973 20.4375 20.1875 20.6474 20.1875 20.9062V29.1875H11.5938V27.9688C11.5938 27.7099 11.3839 27.5 11.125 27.5C10.8661 27.5 10.6562 27.7099 10.6562 27.9688V29.1875H8.03125V28.625H9C9.77544 28.625 10.4062 27.9942 10.4062 27.2188C10.4062 26.4433 9.77544 25.8125 9 25.8125H4.25C3.47456 25.8125 2.84375 26.4433 2.84375 27.2188C2.84375 27.9942 3.47456 28.625 4.25 28.625H5.21875V29.1875H2.59375V25.125H10.6562V25.9896C10.6562 26.2484 10.8661 26.4583 11.125 26.4583C11.3839 26.4583 11.5938 26.2484 11.5938 25.9896V25.125H11.8059C12.0726 25.125 12.3034 24.9562 12.3805 24.7049C12.4562 24.4579 12.362 24.1937 12.1461 24.0476L6.96513 20.5414C6.76175 20.4037 6.48844 20.4037 6.28487 20.5414L1.104 24.0476C0.888062 24.1937 0.793875 24.4578 0.869563 24.7048C0.946563 24.9561 1.1775 25.1249 1.44419 25.1249H1.65625V29.1874H1.40625C0.630813 29.1875 0 29.8183 0 30.5938C0 31.3692 0.630813 32 1.40625 32H30.5938C31.3691 32 32 31.3692 32 30.5938C32 29.8183 31.3691 29.1875 30.5938 29.1875ZM8.03125 26.75H9C9.2585 26.75 9.46875 26.9602 9.46875 27.2188C9.46875 27.4773 9.2585 27.6875 9 27.6875H8.03125V26.75ZM21.125 21.375H23.9375V29.1875H21.125V21.375ZM6.15625 26.75H7.09375V27.6875H6.15625V26.75ZM6.15625 28.625H7.09375V29.1875H6.15625V28.625ZM4.25 27.6875C3.9915 27.6875 3.78125 27.4773 3.78125 27.2188C3.78125 26.9602 3.9915 26.75 4.25 26.75H5.21875V27.6875H4.25ZM7.09375 24.1875H6.15625V23.5938C6.15625 23.3352 6.3665 23.125 6.625 23.125C6.8835 23.125 7.09375 23.3352 7.09375 23.5938V24.1875ZM6.625 21.4433L10.6799 24.1875H8.03125V23.5938C8.03125 22.8183 7.40044 22.1875 6.625 22.1875C5.84956 22.1875 5.21875 22.8183 5.21875 23.5938V24.1875H2.57L6.625 21.4433ZM30.5938 31.0625H1.40625C1.14775 31.0625 0.9375 30.8523 0.9375 30.5938C0.9375 30.3352 1.14775 30.125 1.40625 30.125H30.5938C30.8522 30.125 31.0625 30.3352 31.0625 30.5938C31.0625 30.8523 30.8522 31.0625 30.5938 31.0625Z" fill="#7D8097"/>
<path d="M30.5938 29.1875H30.0625V24C30.0625 23.7411 29.8527 23.5312 29.5938 23.5312C29.3348 23.5312 29.125 23.7411 29.125 24V29.1875H26.3125V21.375H29.125V22C29.125 22.2589 29.3348 22.4688 29.5938 22.4688C29.8527 22.4688 30.0625 22.2589 30.0625 22V20.9062C30.0625 20.6474 29.8527 20.4375 29.5938 20.4375H25.8438C25.5848 20.4375 25.375 20.6474 25.375 20.9062V29.1875H24.875V20.9062C24.875 20.6474 24.6652 20.4375 24.4062 20.4375H20.6562C20.3973 20.4375 20.1875 20.6474 20.1875 20.9062V29.1875H11.5938V27.9688C11.5938 27.7099 11.3839 27.5 11.125 27.5C10.8661 27.5 10.6562 27.7099 10.6562 27.9688V29.1875H8.03125V28.625H9C9.77544 28.625 10.4062 27.9942 10.4062 27.2188C10.4062 26.4433 9.77544 25.8125 9 25.8125H4.25C3.47456 25.8125 2.84375 26.4433 2.84375 27.2188C2.84375 27.9942 3.47456 28.625 4.25 28.625H5.21875V29.1875H2.59375V25.125H10.6562V25.9896C10.6562 26.2484 10.8661 26.4583 11.125 26.4583C11.3839 26.4583 11.5938 26.2484 11.5938 25.9896V25.125H11.8059C12.0726 25.125 12.3034 24.9562 12.3805 24.7049C12.4562 24.4579 12.362 24.1937 12.1461 24.0476L6.96513 20.5414C6.76175 20.4037 6.48844 20.4037 6.28487 20.5414L1.104 24.0476C0.888062 24.1937 0.793875 24.4578 0.869563 24.7048C0.946563 24.9561 1.1775 25.1249 1.44419 25.1249H1.65625V29.1874H1.40625C0.630813 29.1875 0 29.8183 0 30.5938C0 31.3692 0.630813 32 1.40625 32H30.5938C31.3691 32 32 31.3692 32 30.5938C32 29.8183 31.3691 29.1875 30.5938 29.1875ZM8.03125 26.75H9C9.2585 26.75 9.46875 26.9602 9.46875 27.2188C9.46875 27.4773 9.2585 27.6875 9 27.6875H8.03125V26.75ZM21.125 21.375H23.9375V29.1875H21.125V21.375ZM6.15625 26.75H7.09375V27.6875H6.15625V26.75ZM6.15625 28.625H7.09375V29.1875H6.15625V28.625ZM4.25 27.6875C3.9915 27.6875 3.78125 27.4773 3.78125 27.2188C3.78125 26.9602 3.9915 26.75 4.25 26.75H5.21875V27.6875H4.25ZM7.09375 24.1875H6.15625V23.5938C6.15625 23.3352 6.3665 23.125 6.625 23.125C6.8835 23.125 7.09375 23.3352 7.09375 23.5938V24.1875ZM6.625 21.4433L10.6799 24.1875H8.03125V23.5938C8.03125 22.8183 7.40044 22.1875 6.625 22.1875C5.84956 22.1875 5.21875 22.8183 5.21875 23.5938V24.1875H2.57L6.625 21.4433ZM30.5938 31.0625H1.40625C1.14775 31.0625 0.9375 30.8523 0.9375 30.5938C0.9375 30.3352 1.14775 30.125 1.40625 30.125H30.5938C30.8522 30.125 31.0625 30.3352 31.0625 30.5938C31.0625 30.8523 30.8522 31.0625 30.5938 31.0625Z" fill="#7D8097"/>
</g>
</g>
</g>
<g id="Group_5">
<g id="Group_6">
<g id="Vector_3">
<path d="M23.1606 23.4174L21.9106 23.4062C21.9091 23.4062 21.9077 23.4062 21.9063 23.4062C21.6494 23.4062 21.44 23.6133 21.4376 23.8708C21.4353 24.1296 21.6433 24.3414 21.9022 24.3436L23.1522 24.3548C23.1536 24.3548 23.1551 24.3548 23.1565 24.3548C23.4134 24.3548 23.6228 24.1477 23.6251 23.8903C23.6275 23.6314 23.4195 23.4196 23.1606 23.4174Z" fill="#7D8097"/>
<path d="M23.1606 23.4174L21.9106 23.4062C21.9091 23.4062 21.9077 23.4062 21.9063 23.4062C21.6494 23.4062 21.44 23.6133 21.4376 23.8708C21.4353 24.1296 21.6433 24.3414 21.9022 24.3436L23.1522 24.3548C23.1536 24.3548 23.1551 24.3548 23.1565 24.3548C23.4134 24.3548 23.6228 24.1477 23.6251 23.8903C23.6275 23.6314 23.4195 23.4196 23.1606 23.4174Z" fill="#7D8097"/>
<path d="M23.1606 23.4174L21.9106 23.4062C21.9091 23.4062 21.9077 23.4062 21.9063 23.4062C21.6494 23.4062 21.44 23.6133 21.4376 23.8708C21.4353 24.1296 21.6433 24.3414 21.9022 24.3436L23.1522 24.3548C23.1536 24.3548 23.1551 24.3548 23.1565 24.3548C23.4134 24.3548 23.6228 24.1477 23.6251 23.8903C23.6275 23.6314 23.4195 23.4196 23.1606 23.4174Z" fill="#7D8097"/>
</g>
</g>
</g>
<g id="Group_7">
<g id="Group_8">
<g id="Vector_4">
<path d="M23.1606 24.8631L21.9106 24.8519C21.9091 24.8519 21.9077 24.8519 21.9063 24.8519C21.6494 24.8519 21.44 25.0591 21.4376 25.3165C21.4353 25.5754 21.6433 25.7871 21.9022 25.7894L23.1522 25.8006C23.1536 25.8006 23.1551 25.8006 23.1565 25.8006C23.4134 25.8006 23.6228 25.5934 23.6251 25.336C23.6275 25.0771 23.4195 24.8654 23.1606 24.8631Z" fill="#7D8097"/>
<path d="M23.1606 24.8631L21.9106 24.8519C21.9091 24.8519 21.9077 24.8519 21.9063 24.8519C21.6494 24.8519 21.44 25.0591 21.4376 25.3165C21.4353 25.5754 21.6433 25.7871 21.9022 25.7894L23.1522 25.8006C23.1536 25.8006 23.1551 25.8006 23.1565 25.8006C23.4134 25.8006 23.6228 25.5934 23.6251 25.336C23.6275 25.0771 23.4195 24.8654 23.1606 24.8631Z" fill="#7D8097"/>
<path d="M23.1606 24.8631L21.9106 24.8519C21.9091 24.8519 21.9077 24.8519 21.9063 24.8519C21.6494 24.8519 21.44 25.0591 21.4376 25.3165C21.4353 25.5754 21.6433 25.7871 21.9022 25.7894L23.1522 25.8006C23.1536 25.8006 23.1551 25.8006 23.1565 25.8006C23.4134 25.8006 23.6228 25.5934 23.6251 25.336C23.6275 25.0771 23.4195 24.8654 23.1606 24.8631Z" fill="#7D8097"/>
</g>
</g>
</g>
<g id="Group_9">
<g id="Group_10">
<g id="Vector_5">
<path d="M23.1606 26.3088L21.9106 26.2976C21.9091 26.2976 21.9077 26.2976 21.9063 26.2976C21.6494 26.2976 21.44 26.5048 21.4376 26.7622C21.4353 27.0211 21.6433 27.2328 21.9022 27.2351L23.1522 27.2463C23.1536 27.2463 23.1551 27.2463 23.1565 27.2463C23.4134 27.2463 23.6228 27.0391 23.6251 26.7817C23.6275 26.5229 23.4195 26.3111 23.1606 26.3088Z" fill="#7D8097"/>
<path d="M23.1606 26.3088L21.9106 26.2976C21.9091 26.2976 21.9077 26.2976 21.9063 26.2976C21.6494 26.2976 21.44 26.5048 21.4376 26.7622C21.4353 27.0211 21.6433 27.2328 21.9022 27.2351L23.1522 27.2463C23.1536 27.2463 23.1551 27.2463 23.1565 27.2463C23.4134 27.2463 23.6228 27.0391 23.6251 26.7817C23.6275 26.5229 23.4195 26.3111 23.1606 26.3088Z" fill="#7D8097"/>
<path d="M23.1606 26.3088L21.9106 26.2976C21.9091 26.2976 21.9077 26.2976 21.9063 26.2976C21.6494 26.2976 21.44 26.5048 21.4376 26.7622C21.4353 27.0211 21.6433 27.2328 21.9022 27.2351L23.1522 27.2463C23.1536 27.2463 23.1551 27.2463 23.1565 27.2463C23.4134 27.2463 23.6228 27.0391 23.6251 26.7817C23.6275 26.5229 23.4195 26.3111 23.1606 26.3088Z" fill="#7D8097"/>
</g>
</g>
</g>
<g id="Group_11">
<g id="Group_12">
<g id="Vector_6">
<path d="M23.1606 27.7546L21.9106 27.7434C21.9091 27.7434 21.9077 27.7434 21.9063 27.7434C21.6494 27.7434 21.44 27.9505 21.4376 28.2079C21.4353 28.4668 21.6433 28.6786 21.9022 28.6808L23.1522 28.692C23.1536 28.692 23.1551 28.692 23.1565 28.692C23.4134 28.692 23.6228 28.4849 23.6251 28.2274C23.6275 27.9686 23.4195 27.7569 23.1606 27.7546Z" fill="#7D8097"/>
<path d="M23.1606 27.7546L21.9106 27.7434C21.9091 27.7434 21.9077 27.7434 21.9063 27.7434C21.6494 27.7434 21.44 27.9505 21.4376 28.2079C21.4353 28.4668 21.6433 28.6786 21.9022 28.6808L23.1522 28.692C23.1536 28.692 23.1551 28.692 23.1565 28.692C23.4134 28.692 23.6228 28.4849 23.6251 28.2274C23.6275 27.9686 23.4195 27.7569 23.1606 27.7546Z" fill="#7D8097"/>
<path d="M23.1606 27.7546L21.9106 27.7434C21.9091 27.7434 21.9077 27.7434 21.9063 27.7434C21.6494 27.7434 21.44 27.9505 21.4376 28.2079C21.4353 28.4668 21.6433 28.6786 21.9022 28.6808L23.1522 28.692C23.1536 28.692 23.1551 28.692 23.1565 28.692C23.4134 28.692 23.6228 28.4849 23.6251 28.2274C23.6275 27.9686 23.4195 27.7569 23.1606 27.7546Z" fill="#7D8097"/>
</g>
</g>
</g>
<g id="Group_13">
<g id="Group_14">
<g id="Vector_7">
<path d="M28.3481 23.4174L27.0981 23.4062C27.0966 23.4062 27.0952 23.4062 27.0938 23.4062C26.8369 23.4062 26.6275 23.6133 26.6251 23.8708C26.6228 24.1296 26.8308 24.3414 27.0897 24.3436L28.3397 24.3548C28.3411 24.3548 28.3426 24.3548 28.344 24.3548C28.6009 24.3548 28.8103 24.1477 28.8126 23.8903C28.815 23.6314 28.607 23.4196 28.3481 23.4174Z" fill="#7D8097"/>
<path d="M28.3481 23.4174L27.0981 23.4062C27.0966 23.4062 27.0952 23.4062 27.0938 23.4062C26.8369 23.4062 26.6275 23.6133 26.6251 23.8708C26.6228 24.1296 26.8308 24.3414 27.0897 24.3436L28.3397 24.3548C28.3411 24.3548 28.3426 24.3548 28.344 24.3548C28.6009 24.3548 28.8103 24.1477 28.8126 23.8903C28.815 23.6314 28.607 23.4196 28.3481 23.4174Z" fill="#7D8097"/>
<path d="M28.3481 23.4174L27.0981 23.4062C27.0966 23.4062 27.0952 23.4062 27.0938 23.4062C26.8369 23.4062 26.6275 23.6133 26.6251 23.8708C26.6228 24.1296 26.8308 24.3414 27.0897 24.3436L28.3397 24.3548C28.3411 24.3548 28.3426 24.3548 28.344 24.3548C28.6009 24.3548 28.8103 24.1477 28.8126 23.8903C28.815 23.6314 28.607 23.4196 28.3481 23.4174Z" fill="#7D8097"/>
</g>
</g>
</g>
<g id="Group_15">
<g id="Group_16">
<g id="Vector_8">
<path d="M28.3481 24.8631L27.0981 24.8519C27.0966 24.8519 27.0952 24.8519 27.0938 24.8519C26.8369 24.8519 26.6275 25.0591 26.6251 25.3165C26.6228 25.5754 26.8308 25.7871 27.0897 25.7894L28.3397 25.8006C28.3411 25.8006 28.3426 25.8006 28.344 25.8006C28.6009 25.8006 28.8103 25.5934 28.8126 25.336C28.815 25.0771 28.607 24.8654 28.3481 24.8631Z" fill="#7D8097"/>
<path d="M28.3481 24.8631L27.0981 24.8519C27.0966 24.8519 27.0952 24.8519 27.0938 24.8519C26.8369 24.8519 26.6275 25.0591 26.6251 25.3165C26.6228 25.5754 26.8308 25.7871 27.0897 25.7894L28.3397 25.8006C28.3411 25.8006 28.3426 25.8006 28.344 25.8006C28.6009 25.8006 28.8103 25.5934 28.8126 25.336C28.815 25.0771 28.607 24.8654 28.3481 24.8631Z" fill="#7D8097"/>
<path d="M28.3481 24.8631L27.0981 24.8519C27.0966 24.8519 27.0952 24.8519 27.0938 24.8519C26.8369 24.8519 26.6275 25.0591 26.6251 25.3165C26.6228 25.5754 26.8308 25.7871 27.0897 25.7894L28.3397 25.8006C28.3411 25.8006 28.3426 25.8006 28.344 25.8006C28.6009 25.8006 28.8103 25.5934 28.8126 25.336C28.815 25.0771 28.607 24.8654 28.3481 24.8631Z" fill="#7D8097"/>
</g>
</g>
</g>
<g id="Group_17">
<g id="Group_18">
<g id="Vector_9">
<path d="M28.3481 26.3088L27.0981 26.2976C27.0966 26.2976 27.0952 26.2976 27.0938 26.2976C26.8369 26.2976 26.6275 26.5048 26.6251 26.7622C26.6228 27.0211 26.8308 27.2328 27.0897 27.2351L28.3397 27.2463C28.3411 27.2463 28.3426 27.2463 28.344 27.2463C28.6009 27.2463 28.8103 27.0391 28.8126 26.7817C28.815 26.5229 28.607 26.3111 28.3481 26.3088Z" fill="#7D8097"/>
<path d="M28.3481 26.3088L27.0981 26.2976C27.0966 26.2976 27.0952 26.2976 27.0938 26.2976C26.8369 26.2976 26.6275 26.5048 26.6251 26.7622C26.6228 27.0211 26.8308 27.2328 27.0897 27.2351L28.3397 27.2463C28.3411 27.2463 28.3426 27.2463 28.344 27.2463C28.6009 27.2463 28.8103 27.0391 28.8126 26.7817C28.815 26.5229 28.607 26.3111 28.3481 26.3088Z" fill="#7D8097"/>
<path d="M28.3481 26.3088L27.0981 26.2976C27.0966 26.2976 27.0952 26.2976 27.0938 26.2976C26.8369 26.2976 26.6275 26.5048 26.6251 26.7622C26.6228 27.0211 26.8308 27.2328 27.0897 27.2351L28.3397 27.2463C28.3411 27.2463 28.3426 27.2463 28.344 27.2463C28.6009 27.2463 28.8103 27.0391 28.8126 26.7817C28.815 26.5229 28.607 26.3111 28.3481 26.3088Z" fill="#7D8097"/>
</g>
</g>
</g>
<g id="Group_19">
<g id="Group_20">
<g id="Vector_10">
<path d="M28.3481 27.7546L27.0981 27.7434C27.0966 27.7434 27.0952 27.7434 27.0938 27.7434C26.8369 27.7434 26.6275 27.9506 26.6251 28.208C26.6228 28.4669 26.8308 28.6786 27.0897 28.6809L28.3397 28.6921C28.3411 28.6921 28.3426 28.6921 28.344 28.6921C28.6009 28.6921 28.8103 28.4849 28.8126 28.2275C28.815 27.9686 28.607 27.7569 28.3481 27.7546Z" fill="#7D8097"/>
<path d="M28.3481 27.7546L27.0981 27.7434C27.0966 27.7434 27.0952 27.7434 27.0938 27.7434C26.8369 27.7434 26.6275 27.9506 26.6251 28.208C26.6228 28.4669 26.8308 28.6786 27.0897 28.6809L28.3397 28.6921C28.3411 28.6921 28.3426 28.6921 28.344 28.6921C28.6009 28.6921 28.8103 28.4849 28.8126 28.2275C28.815 27.9686 28.607 27.7569 28.3481 27.7546Z" fill="#7D8097"/>
<path d="M28.3481 27.7546L27.0981 27.7434C27.0966 27.7434 27.0952 27.7434 27.0938 27.7434C26.8369 27.7434 26.6275 27.9506 26.6251 28.208C26.6228 28.4669 26.8308 28.6786 27.0897 28.6809L28.3397 28.6921C28.3411 28.6921 28.3426 28.6921 28.344 28.6921C28.6009 28.6921 28.8103 28.4849 28.8126 28.2275C28.815 27.9686 28.607 27.7569 28.3481 27.7546Z" fill="#7D8097"/>
</g>
</g>
</g>
<g id="Group_21">
<g id="Group_22">
<g id="Vector_11">
<path d="M21.958 22.8781C22.2169 22.8781 22.4268 22.6682 22.4268 22.4094C22.4268 22.1505 22.2169 21.9406 21.958 21.9406C21.6991 21.9406 21.4893 22.1505 21.4893 22.4094C21.4893 22.6682 21.6991 22.8781 21.958 22.8781Z" fill="#7D8097"/>
<path d="M21.958 22.8781C22.2169 22.8781 22.4268 22.6682 22.4268 22.4094C22.4268 22.1505 22.2169 21.9406 21.958 21.9406C21.6991 21.9406 21.4893 22.1505 21.4893 22.4094C21.4893 22.6682 21.6991 22.8781 21.958 22.8781Z" fill="#7D8097"/>
<path d="M21.958 22.8781C22.2169 22.8781 22.4268 22.6682 22.4268 22.4094C22.4268 22.1505 22.2169 21.9406 21.958 21.9406C21.6991 21.9406 21.4893 22.1505 21.4893 22.4094C21.4893 22.6682 21.6991 22.8781 21.958 22.8781Z" fill="#7D8097"/>
</g>
</g>
</g>
<g id="Group_23">
<g id="Group_24">
<g id="Vector_12">
<path d="M27.1455 22.8781C27.4044 22.8781 27.6143 22.6682 27.6143 22.4094C27.6143 22.1505 27.4044 21.9406 27.1455 21.9406C26.8866 21.9406 26.6768 22.1505 26.6768 22.4094C26.6768 22.6682 26.8866 22.8781 27.1455 22.8781Z" fill="#7D8097"/>
<path d="M27.1455 22.8781C27.4044 22.8781 27.6143 22.6682 27.6143 22.4094C27.6143 22.1505 27.4044 21.9406 27.1455 21.9406C26.8866 21.9406 26.6768 22.1505 26.6768 22.4094C26.6768 22.6682 26.8866 22.8781 27.1455 22.8781Z" fill="#7D8097"/>
<path d="M27.1455 22.8781C27.4044 22.8781 27.6143 22.6682 27.6143 22.4094C27.6143 22.1505 27.4044 21.9406 27.1455 21.9406C26.8866 21.9406 26.6768 22.1505 26.6768 22.4094C26.6768 22.6682 26.8866 22.8781 27.1455 22.8781Z" fill="#7D8097"/>
</g>
</g>
</g>
<g id="Group_25">
<g id="Group_26">
<g id="Vector_13">
<path d="M5.91164 10.9553C5.90176 10.7467 5.75507 10.5698 5.55195 10.5215L4.21845 10.204C3.9667 10.1441 3.71382 10.2997 3.65389 10.5515C3.59395 10.8033 3.74945 11.0561 4.00132 11.116L4.37557 11.2052C2.40545 12.8163 2.00689 14.658 2.0437 15.9788C2.08776 17.5573 2.74451 18.7196 2.77245 18.7683C2.85901 18.9191 3.01657 19.0035 3.17882 19.0035C3.25764 19.0035 3.33757 18.9835 3.41095 18.9417C3.63545 18.8136 3.71364 18.5276 3.5862 18.3028C3.49839 18.1479 1.57945 14.6558 5.01739 11.8915L5.04189 12.408C5.05376 12.6591 5.26101 12.8547 5.50976 12.8546C5.51726 12.8546 5.52476 12.8545 5.53232 12.8541C5.79095 12.8418 5.99064 12.6223 5.97839 12.3637L5.91164 10.9553Z" fill="#7D8097"/>
<path d="M5.91164 10.9553C5.90176 10.7467 5.75507 10.5698 5.55195 10.5215L4.21845 10.204C3.9667 10.1441 3.71382 10.2997 3.65389 10.5515C3.59395 10.8033 3.74945 11.0561 4.00132 11.116L4.37557 11.2052C2.40545 12.8163 2.00689 14.658 2.0437 15.9788C2.08776 17.5573 2.74451 18.7196 2.77245 18.7683C2.85901 18.9191 3.01657 19.0035 3.17882 19.0035C3.25764 19.0035 3.33757 18.9835 3.41095 18.9417C3.63545 18.8136 3.71364 18.5276 3.5862 18.3028C3.49839 18.1479 1.57945 14.6558 5.01739 11.8915L5.04189 12.408C5.05376 12.6591 5.26101 12.8547 5.50976 12.8546C5.51726 12.8546 5.52476 12.8545 5.53232 12.8541C5.79095 12.8418 5.99064 12.6223 5.97839 12.3637L5.91164 10.9553Z" fill="#7D8097"/>
<path d="M5.91164 10.9553C5.90176 10.7467 5.75507 10.5698 5.55195 10.5215L4.21845 10.204C3.9667 10.1441 3.71382 10.2997 3.65389 10.5515C3.59395 10.8033 3.74945 11.0561 4.00132 11.116L4.37557 11.2052C2.40545 12.8163 2.00689 14.658 2.0437 15.9788C2.08776 17.5573 2.74451 18.7196 2.77245 18.7683C2.85901 18.9191 3.01657 19.0035 3.17882 19.0035C3.25764 19.0035 3.33757 18.9835 3.41095 18.9417C3.63545 18.8136 3.71364 18.5276 3.5862 18.3028C3.49839 18.1479 1.57945 14.6558 5.01739 11.8915L5.04189 12.408C5.05376 12.6591 5.26101 12.8547 5.50976 12.8546C5.51726 12.8546 5.52476 12.8545 5.53232 12.8541C5.79095 12.8418 5.99064 12.6223 5.97839 12.3637L5.91164 10.9553Z" fill="#7D8097"/>
</g>
</g>
</g>
<g id="Group_27">
<g id="Group_28">
<g id="Vector_14">
<path d="M29.408 18.1384C29.3568 17.8847 29.1095 17.7208 28.8558 17.7718L28.4787 17.8479C29.591 15.5588 29.18 13.7198 28.5924 12.5363C27.8902 11.122 26.8064 10.3426 26.7605 10.3101C26.5494 10.1603 26.2567 10.2101 26.107 10.4212C25.9573 10.6324 26.007 10.9249 26.2181 11.0748C26.2274 11.0813 27.1543 11.7479 27.7528 12.9533C28.4558 14.3691 28.4062 15.8941 27.6085 17.4949L27.3692 17.0356C27.2495 16.8059 26.9665 16.7169 26.7369 16.8364C26.5073 16.9561 26.4181 17.2391 26.5377 17.4688L27.1892 18.7192C27.2711 18.8763 27.4327 18.9714 27.6048 18.9714C27.6355 18.9714 27.6667 18.9683 27.6977 18.9621L29.0413 18.6907C29.2952 18.6394 29.4593 18.3922 29.408 18.1384Z" fill="#7D8097"/>
<path d="M29.408 18.1384C29.3568 17.8847 29.1095 17.7208 28.8558 17.7718L28.4787 17.8479C29.591 15.5588 29.18 13.7198 28.5924 12.5363C27.8902 11.122 26.8064 10.3426 26.7605 10.3101C26.5494 10.1603 26.2567 10.2101 26.107 10.4212C25.9573 10.6324 26.007 10.9249 26.2181 11.0748C26.2274 11.0813 27.1543 11.7479 27.7528 12.9533C28.4558 14.3691 28.4062 15.8941 27.6085 17.4949L27.3692 17.0356C27.2495 16.8059 26.9665 16.7169 26.7369 16.8364C26.5073 16.9561 26.4181 17.2391 26.5377 17.4688L27.1892 18.7192C27.2711 18.8763 27.4327 18.9714 27.6048 18.9714C27.6355 18.9714 27.6667 18.9683 27.6977 18.9621L29.0413 18.6907C29.2952 18.6394 29.4593 18.3922 29.408 18.1384Z" fill="#7D8097"/>
<path d="M29.408 18.1384C29.3568 17.8847 29.1095 17.7208 28.8558 17.7718L28.4787 17.8479C29.591 15.5588 29.18 13.7198 28.5924 12.5363C27.8902 11.122 26.8064 10.3426 26.7605 10.3101C26.5494 10.1603 26.2567 10.2101 26.107 10.4212C25.9573 10.6324 26.007 10.9249 26.2181 11.0748C26.2274 11.0813 27.1543 11.7479 27.7528 12.9533C28.4558 14.3691 28.4062 15.8941 27.6085 17.4949L27.3692 17.0356C27.2495 16.8059 26.9665 16.7169 26.7369 16.8364C26.5073 16.9561 26.4181 17.2391 26.5377 17.4688L27.1892 18.7192C27.2711 18.8763 27.4327 18.9714 27.6048 18.9714C27.6355 18.9714 27.6667 18.9683 27.6977 18.9621L29.0413 18.6907C29.2952 18.6394 29.4593 18.3922 29.408 18.1384Z" fill="#7D8097"/>
</g>
</g>
</g>
</g>
</g>
</g>
</g>
<defs>
<filter id="filter0_d" x="-34" y="-165" width="328" height="1236" filterUnits="userSpaceOnUse" color-interpolation-filters="sRGB">
<feFlood flood-opacity="0" result="BackgroundImageFix"/>
<feColorMatrix in="SourceAlpha" type="matrix" values="0 0 0 0 0 0 0 0 0 0 0 0 0 0 0 0 0 0 127 0"/>
<feOffset dx="2"/>
<feGaussianBlur stdDeviation="2"/>
<feColorMatrix type="matrix" values="0 0 0 0 0 0 0 0 0 0 0 0 0 0 0 0 0 0 0.06 0"/>
<feBlend mode="normal" in2="BackgroundImageFix" result="effect1_dropShadow"/>
<feBlend mode="normal" in="SourceGraphic" in2="effect1_dropShadow" result="shape"/>
</filter>
<clipPath id="clip0">
<rect width="1920" height="1317" fill="white" transform="translate(-32 -250)"/>
</clipPath>
</defs>
</svg>
